<svg id="svg" version="1.1" xmlns="http://www.w3.org/2000/svg" xmlns:xlink="http://www.w3.org/1999/xlink" width="400" height="388.8888888888889" viewBox="0, 0, 400,388.8888888888889"><g id="svgg"><path id="path0" d="M197.608 3.125 C 174.255 27.154,155.430 71.020,150.277 113.421 C 148.450 128.457,148.198 150.497,149.720 162.083 C 150.021 164.375,150.270 166.281,150.273 166.319 C 150.275 166.358,173.078 166.389,200.945 166.389 L 251.612 166.389 251.784 164.792 C 257.269 113.850,244.988 60.790,218.530 21.111 C 212.716 12.392,202.415 -0.000,200.981 0.000 C 200.796 0.000,199.279 1.406,197.608 3.125 M2.350 81.597 C 1.113 104.455,8.080 133.284,21.694 161.639 L 23.974 166.389 82.682 166.389 C 128.439 166.389,141.389 166.315,141.389 166.053 C 141.389 164.760,131.351 151.387,123.925 142.786 C 95.354 109.696,48.458 83.424,8.629 78.195 C 6.882 77.965,4.801 77.778,4.004 77.778 L 2.557 77.778 2.350 81.597 M392.639 78.338 C 346.786 84.698,295.273 117.098,266.217 157.851 C 264.324 160.506,260.833 165.946,260.833 166.240 C 260.833 166.322,287.189 166.389,319.401 166.389 L 377.968 166.389 380.207 161.736 C 390.273 140.818,396.565 120.812,399.187 101.389 C 399.808 96.788,400.258 82.385,399.876 79.327 L 399.682 77.778 397.966 77.807 C 397.022 77.823,394.625 78.062,392.639 78.338 M31.944 181.410 C 31.944 182.203,35.617 187.928,39.547 193.264 L 42.054 196.667 200.819 196.663 L 359.583 196.660 360.845 195.205 C 364.115 191.436,370.000 182.557,370.000 181.393 C 370.000 181.203,315.154 181.111,200.972 181.111 C 80.559 181.111,31.944 181.197,31.944 181.410 M55.278 213.022 C 55.278 213.568,64.199 222.437,67.064 224.740 L 70.139 227.212 200.154 227.217 L 330.168 227.222 333.070 225.330 C 336.261 223.250,340.189 220.053,342.394 217.741 C 343.838 216.227,346.389 213.140,346.389 212.906 C 346.389 212.835,280.889 212.778,200.833 212.778 C 117.277 212.778,55.278 212.882,55.278 213.022 M91.111 242.070 C 91.111 242.325,99.174 247.818,103.472 250.490 C 125.543 264.213,150.203 273.214,171.013 275.144 L 172.999 275.328 173.206 272.317 C 173.600 266.613,172.937 249.993,172.047 243.264 L 171.873 241.944 131.492 241.944 C 109.283 241.944,91.111 242.001,91.111 242.070 M176.693 244.097 C 183.567 256.676,192.923 269.892,199.519 276.340 L 201.032 277.819 203.468 275.090 C 211.232 266.394,218.520 255.880,224.950 244.097 L 226.125 241.944 200.821 241.944 L 175.517 241.944 176.693 244.097 M230.457 242.156 C 229.557 243.613,228.073 261.750,228.061 271.458 C 228.055 275.932,227.413 275.496,233.056 274.843 C 256.749 272.098,283.742 261.122,306.629 244.928 C 308.560 243.562,310.258 242.332,310.403 242.194 C 310.559 242.046,294.353 241.944,270.628 241.944 C 248.606 241.944,230.529 242.040,230.457 242.156 M133.333 309.975 L 133.333 324.117 130.486 322.631 C 112.601 313.297,90.137 320.288,81.421 337.899 C 69.738 361.505,86.862 388.894,113.300 388.888 C 120.401 388.886,124.802 387.667,133.125 383.394 C 133.240 383.335,133.333 384.235,133.333 385.394 L 133.333 387.500 141.944 387.500 L 150.556 387.500 150.556 341.667 L 150.556 295.833 141.944 295.833 L 133.333 295.833 133.333 309.975 M158.611 304.444 L 158.611 313.056 167.083 313.056 L 175.556 313.056 175.556 304.444 L 175.556 295.833 167.083 295.833 L 158.611 295.833 158.611 304.444 M237.500 309.986 L 237.500 324.139 235.625 323.059 C 217.984 312.905,194.089 320.245,185.704 338.394 C 171.385 369.386,203.968 400.423,234.524 384.897 L 237.500 383.385 237.500 385.443 L 237.500 387.500 245.972 387.500 L 254.444 387.500 254.444 341.667 L 254.444 295.833 245.972 295.833 L 237.500 295.833 237.500 309.986 M387.045 296.138 C 379.637 297.084,377.167 307.081,383.249 311.498 C 388.829 315.549,396.479 312.040,396.885 305.243 C 397.232 299.441,392.860 295.396,387.045 296.138 M391.299 298.148 C 396.535 300.855,396.798 307.784,391.776 310.726 C 386.459 313.842,380.033 308.555,381.821 302.534 C 382.991 298.596,387.832 296.355,391.299 298.148 M385.556 304.583 L 385.556 309.444 386.389 309.444 L 387.222 309.444 387.222 307.500 C 387.222 305.800,387.286 305.556,387.731 305.556 C 388.074 305.556,388.587 306.188,389.306 307.500 C 390.304 309.321,390.432 309.444,391.322 309.444 L 392.272 309.444 391.151 307.400 L 390.029 305.356 390.678 305.009 C 393.774 303.352,391.502 299.722,387.370 299.722 L 385.556 299.722 385.556 304.583 M389.280 301.379 C 391.014 302.039,390.259 304.167,388.290 304.167 L 387.222 304.167 387.222 302.639 C 387.222 300.966,387.594 300.738,389.280 301.379 M32.012 318.621 C 2.264 321.090,-10.873 357.358,10.274 378.631 C 22.102 390.529,38.146 392.225,55.347 383.394 C 55.462 383.335,55.556 384.235,55.556 385.394 L 55.556 387.500 64.028 387.500 L 72.500 387.500 72.500 353.333 L 72.500 319.167 64.028 319.167 L 55.556 319.167 55.556 321.646 L 55.556 324.125 52.909 322.731 C 48.674 320.502,44.063 319.126,39.583 318.755 C 35.682 318.431,34.535 318.411,32.012 318.621 M292.289 318.633 C 267.184 320.600,252.125 347.397,263.604 369.674 C 272.763 387.448,295.497 394.301,312.778 384.497 C 313.771 383.933,314.677 383.431,314.792 383.380 C 314.906 383.329,315.000 384.235,315.000 385.394 L 315.000 387.500 323.611 387.500 L 332.222 387.500 332.222 353.333 L 332.222 319.167 323.611 319.167 L 315.000 319.167 315.000 321.694 L 315.000 324.221 314.097 323.627 C 308.378 319.863,300.274 318.007,292.289 318.633 M364.583 318.612 C 349.497 319.727,340.000 328.097,340.000 340.278 C 340.000 353.311,348.277 359.411,369.583 362.078 C 380.809 363.483,384.585 367.903,378.976 373.073 C 371.996 379.508,357.652 375.639,356.510 367.014 L 356.317 365.556 347.325 365.556 L 338.333 365.556 338.343 366.319 C 338.538 381.676,355.937 391.606,377.134 388.458 C 391.343 386.349,399.136 378.850,399.639 366.806 C 400.170 354.100,393.023 348.359,372.500 345.006 C 361.078 343.140,357.227 341.332,357.223 337.833 C 357.218 333.568,363.671 330.861,371.323 331.919 C 376.617 332.651,378.980 334.815,379.619 339.514 L 379.798 340.833 388.371 340.833 L 396.944 340.833 396.944 340.190 C 396.944 337.547,395.323 332.923,393.351 329.942 C 387.976 321.818,377.425 317.662,364.583 318.612 M158.611 353.333 L 158.611 387.500 167.083 387.500 L 175.556 387.500 175.556 353.333 L 175.556 319.167 167.083 319.167 L 158.611 319.167 158.611 353.333 M41.528 335.095 C 56.427 339.949,60.290 358.636,48.366 368.172 C 38.774 375.843,26.106 373.880,19.426 363.686 C 9.817 349.025,24.798 329.644,41.528 335.095 M117.984 334.584 C 129.679 337.341,136.548 350.629,131.668 361.057 C 124.033 377.373,101.601 376.485,95.187 359.613 C 90.147 346.355,103.894 331.262,117.984 334.584 M222.386 334.724 C 235.477 338.043,241.603 352.912,234.366 363.798 C 225.851 376.607,207.578 375.522,200.822 361.806 C 193.817 347.582,207.135 330.856,222.386 334.724 M300.401 334.718 C 316.692 338.885,320.028 361.347,305.653 370.080 C 289.507 379.888,270.010 361.670,278.784 344.972 C 283.041 336.870,292.070 332.587,300.401 334.718 " stroke="none" fill="#047cc4" fill-rule="evenodd"></path><path id="path1" d="" stroke="none" fill="#087cc4" fill-rule="evenodd"></path><path id="path2" d="" stroke="none" fill="#087cc4" fill-rule="evenodd"></path><path id="path3" d="" stroke="none" fill="#087cc4" fill-rule="evenodd"></path><path id="path4" d="" stroke="none" fill="#087cc4" fill-rule="evenodd"></path></g></svg>