<svg id="svg" version="1.1" xmlns="http://www.w3.org/2000/svg" xmlns:xlink="http://www.w3.org/1999/xlink" width="400" height="222.22222222222223" viewBox="0, 0, 400,222.22222222222223"><g id="svgg"><path id="path0" d="M337.485 65.923 C 337.401 66.006,337.333 80.909,337.333 99.040 L 337.333 132.007 343.944 131.948 L 350.556 131.889 350.614 124.864 L 350.673 117.839 353.724 114.975 C 360.166 108.928,359.101 109.133,362.111 113.363 C 363.333 115.081,365.039 117.452,365.902 118.632 C 366.765 119.812,368.407 122.078,369.550 123.667 C 370.694 125.256,371.997 127.056,372.445 127.667 C 372.894 128.278,373.791 129.503,374.439 130.389 L 375.617 132.000 383.364 132.000 C 387.625 132.000,391.111 131.925,391.110 131.833 C 391.109 131.667,390.585 130.953,387.922 127.488 C 387.152 126.486,385.537 124.367,384.332 122.778 C 383.128 121.189,381.528 119.089,380.777 118.111 C 380.026 117.133,378.426 115.033,377.222 113.444 C 376.017 111.856,374.570 109.956,374.004 109.222 C 369.696 103.633,368.212 101.537,368.376 101.274 C 368.547 101.000,371.690 97.964,375.791 94.111 C 380.443 89.742,385.167 85.275,387.217 83.308 C 388.442 82.134,389.819 80.848,390.278 80.452 C 390.736 80.056,391.111 79.642,391.111 79.533 C 391.111 79.418,387.398 79.333,382.423 79.333 L 373.735 79.333 372.256 80.731 C 368.033 84.725,353.493 98.312,352.171 99.500 C 351.594 100.019,351.019 100.444,350.895 100.444 C 350.745 100.444,350.650 94.683,350.612 83.167 L 350.556 65.889 344.096 65.830 C 340.543 65.798,337.568 65.839,337.485 65.923 M143.778 79.802 C 143.228 79.912,142.228 80.109,141.556 80.240 C 132.469 82.015,124.556 89.794,122.248 99.222 C 121.238 103.347,121.563 110.965,122.883 114.111 C 122.986 114.356,123.236 115.006,123.439 115.556 C 127.395 126.262,139.381 133.156,151.444 131.662 C 155.108 131.209,158.016 130.502,158.593 129.925 C 158.674 129.844,158.902 129.778,159.099 129.778 C 159.568 129.778,163.289 127.348,163.983 126.589 C 165.154 125.309,165.334 125.653,165.331 129.167 C 165.322 139.108,158.739 144.245,147.889 142.776 C 142.362 142.028,139.710 141.002,136.400 138.331 L 134.923 137.139 131.628 140.298 C 129.816 142.036,127.858 143.896,127.278 144.432 C 126.697 144.967,126.222 145.495,126.222 145.603 C 126.222 146.013,131.165 150.222,131.646 150.222 C 131.723 150.222,132.208 150.488,132.724 150.814 C 135.399 152.503,140.165 154.239,143.889 154.883 C 144.744 155.030,145.877 155.246,146.406 155.361 C 147.800 155.665,154.650 155.646,156.397 155.334 C 167.822 153.291,175.149 147.039,177.754 137.111 C 178.645 133.713,178.696 131.859,178.624 105.222 L 178.556 79.667 171.944 79.608 L 165.333 79.549 165.333 82.330 C 165.333 85.662,165.336 85.660,163.044 83.867 C 160.771 82.088,159.820 81.637,155.889 80.471 C 152.845 79.568,146.668 79.227,143.778 79.802 M210.222 79.911 C 206.330 80.597,204.868 81.032,202.184 82.306 C 194.922 85.752,189.256 92.649,187.829 99.778 C 187.695 100.450,187.478 101.533,187.348 102.184 C 186.883 104.508,187.138 108.731,187.962 112.333 C 189.759 120.194,197.222 128.122,205.000 130.434 C 205.489 130.579,206.089 130.784,206.333 130.889 C 206.578 130.995,207.128 131.136,207.556 131.204 C 207.983 131.272,208.983 131.453,209.778 131.607 C 211.596 131.959,219.356 131.960,221.333 131.608 C 238.545 128.550,248.243 110.945,241.344 95.280 C 237.671 86.942,230.477 81.700,220.098 79.802 C 218.314 79.476,212.318 79.542,210.222 79.911 M252.148 79.704 C 252.067 79.785,252.000 93.373,252.000 109.899 C 252.000 142.326,252.054 140.807,250.853 141.930 C 249.841 142.875,249.199 142.987,244.111 143.107 L 239.222 143.222 239.163 149.534 L 239.104 155.845 245.385 155.712 C 251.224 155.588,252.930 155.437,255.222 154.836 C 260.901 153.347,264.101 149.951,265.316 144.121 C 265.771 141.943,265.778 141.431,265.778 110.732 L 265.778 79.556 259.037 79.556 C 255.330 79.556,252.230 79.622,252.148 79.704 M297.333 79.767 C 296.906 79.858,295.856 80.058,295.000 80.210 C 293.299 80.512,292.007 80.881,291.678 81.156 C 291.562 81.254,291.320 81.333,291.141 81.333 C 289.730 81.333,284.388 84.771,281.682 87.421 C 275.161 93.807,272.658 105.056,275.681 114.389 C 278.953 124.493,288.106 131.016,300.444 132.039 C 310.271 132.853,319.892 129.457,325.363 123.241 L 326.225 122.262 324.946 121.336 C 324.242 120.827,322.177 119.368,320.356 118.094 L 317.046 115.777 316.134 116.516 C 313.678 118.507,311.561 119.627,308.667 120.468 C 306.673 121.047,300.574 121.184,299.000 120.686 C 298.511 120.531,297.761 120.300,297.333 120.172 C 292.715 118.794,288.545 114.719,288.061 111.112 L 287.942 110.225 308.360 110.168 L 328.778 110.111 328.854 108.444 C 329.619 91.620,318.123 79.470,301.542 79.578 C 299.655 79.590,297.761 79.675,297.333 79.767 M305.889 91.062 C 310.604 91.904,314.372 95.399,315.226 99.722 L 315.369 100.444 301.793 100.444 L 288.217 100.444 288.360 99.500 C 289.295 93.335,297.230 89.515,305.889 91.062 M154.000 91.869 C 162.054 93.833,164.844 97.777,164.626 106.889 L 164.533 110.778 163.722 112.444 C 159.126 121.891,142.064 122.369,137.170 113.189 C 134.291 107.786,135.144 99.898,139.039 95.908 C 142.334 92.533,149.162 90.690,154.000 91.869 M218.352 91.872 C 223.762 92.824,228.001 96.571,229.118 101.387 C 229.267 102.030,229.476 102.845,229.583 103.200 C 229.891 104.220,229.795 107.761,229.419 109.222 C 229.231 109.956,229.022 110.782,228.956 111.059 C 228.890 111.336,228.748 111.617,228.640 111.683 C 228.533 111.750,228.442 111.973,228.439 112.180 C 228.431 112.805,227.025 114.866,225.672 116.235 C 222.697 119.247,216.877 120.762,212.135 119.761 C 197.667 116.704,196.826 96.244,211.000 92.127 C 211.733 91.914,212.433 91.706,212.556 91.665 C 213.157 91.464,216.762 91.593,218.352 91.872 " stroke="none" fill="#050505" fill-rule="evenodd"></path><path id="path1" d="M50.444 66.235 C 46.617 66.460,42.567 67.210,39.778 68.211 C 29.924 71.748,23.005 76.788,16.971 84.824 C 16.440 85.532,16.004 86.196,16.002 86.299 C 16.001 86.402,15.812 86.752,15.582 87.077 C 13.624 89.836,11.490 94.626,10.269 99.000 C 9.853 100.488,9.657 101.368,9.079 104.333 C 8.747 106.034,8.782 114.392,9.131 116.778 C 11.306 131.655,20.826 144.841,33.778 150.914 C 36.345 152.118,37.103 152.401,38.503 152.676 C 47.400 154.426,51.440 140.868,43.175 136.998 C 38.517 134.816,36.659 133.568,33.762 130.672 C 20.280 117.195,23.627 94.789,40.444 85.930 C 60.050 75.604,83.184 90.477,81.859 112.556 C 81.231 123.015,75.378 131.469,65.284 136.495 C 63.124 137.571,62.498 138.002,61.618 139.020 C 55.796 145.749,63.135 155.440,71.387 151.921 C 73.070 151.203,75.283 150.098,76.111 149.562 C 76.600 149.245,77.260 148.856,77.577 148.696 C 79.987 147.484,86.090 142.010,88.825 138.608 C 90.219 136.874,92.000 134.354,92.000 134.116 C 92.000 134.035,92.282 133.551,92.627 133.040 C 95.292 129.092,97.474 122.257,98.441 114.824 C 99.456 107.024,96.581 94.506,92.255 87.893 C 91.932 87.398,91.567 86.833,91.444 86.637 C 88.397 81.761,83.838 77.111,78.822 73.761 C 70.115 67.946,61.266 65.600,50.444 66.235 M51.556 94.227 C 37.254 95.643,31.834 114.120,42.954 123.550 C 56.540 135.071,76.519 119.610,68.809 103.543 C 65.674 97.010,59.130 93.477,51.556 94.227 " stroke="none" fill="#05ac15" fill-rule="evenodd"></path><path id="path2" d="M0.000 111.111 L 0.000 222.222 200.000 222.222 L 400.000 222.222 400.000 111.111 L 400.000 0.000 200.000 0.000 L 0.000 0.000 0.000 111.111 M350.537 65.690 C 350.854 65.812,350.889 67.528,350.889 82.818 C 350.889 97.723,350.929 99.802,351.219 99.739 C 351.507 99.676,358.954 92.793,369.978 82.399 L 373.444 79.131 382.500 79.121 C 389.897 79.113,391.556 79.165,391.556 79.407 C 391.556 79.653,379.640 91.064,370.966 99.125 C 369.725 100.279,368.700 101.316,368.688 101.431 C 368.676 101.545,369.992 103.381,371.611 105.511 C 373.231 107.640,375.859 111.096,377.452 113.191 C 383.186 120.732,388.856 128.170,390.192 129.902 C 392.326 132.669,392.889 132.460,383.501 132.392 L 375.446 132.333 374.061 130.444 C 373.298 129.406,370.469 125.506,367.773 121.778 C 359.932 110.934,359.539 110.414,359.234 110.487 C 359.074 110.525,357.132 112.246,354.919 114.313 L 350.895 118.070 350.836 125.201 L 350.778 132.333 344.138 132.392 C 339.424 132.434,337.410 132.378,337.193 132.198 C 336.772 131.848,336.734 66.244,337.156 65.822 C 337.438 65.540,349.828 65.418,350.537 65.690 M58.595 66.003 C 78.232 68.542,93.431 81.996,97.630 100.559 C 98.836 105.889,99.171 113.597,98.379 117.778 C 98.182 118.817,97.955 120.017,97.876 120.444 C 97.540 122.249,96.237 126.358,95.622 127.556 C 95.465 127.861,95.335 128.187,95.335 128.280 C 95.329 128.940,92.904 133.325,90.819 136.444 C 85.343 144.639,73.662 152.957,67.679 152.923 C 60.213 152.881,56.427 143.799,61.675 138.524 C 62.506 137.689,63.547 137.014,65.539 136.017 C 81.409 128.081,86.460 109.651,76.754 95.101 C 66.173 79.240,42.228 78.851,31.075 94.361 C 29.891 96.007,27.778 99.796,27.497 100.778 C 27.426 101.022,27.158 101.922,26.899 102.778 C 26.072 105.517,25.778 107.568,25.778 110.594 C 25.778 113.321,25.860 114.065,26.481 117.000 C 27.995 124.142,32.742 130.714,39.241 134.662 C 40.050 135.153,40.747 135.556,40.791 135.556 C 41.850 135.556,45.557 138.115,46.528 139.516 C 51.538 146.746,43.878 155.910,35.889 152.245 C 27.118 148.222,21.402 143.460,15.924 135.613 C 15.477 134.973,15.111 134.400,15.111 134.340 C 15.111 134.279,14.707 133.570,14.213 132.763 C 8.181 122.908,6.774 108.396,10.703 96.559 C 17.301 76.678,38.172 63.361,58.595 66.003 M153.525 79.562 C 157.031 80.142,160.932 81.751,163.273 83.583 C 164.034 84.179,164.706 84.667,164.766 84.667 C 164.826 84.667,164.903 83.442,164.938 81.944 L 165.000 79.222 171.889 79.222 L 178.778 79.222 178.778 106.667 C 178.778 136.229,178.813 135.248,177.607 138.889 C 172.347 154.761,152.431 160.769,134.275 151.961 C 130.686 150.220,125.778 146.540,125.778 145.591 C 125.778 145.331,134.679 136.889,134.954 136.889 C 135.086 136.889,135.652 137.275,136.212 137.748 C 140.217 141.124,144.431 142.511,150.778 142.539 C 158.058 142.572,162.760 139.736,164.439 134.297 C 164.875 132.887,165.135 126.444,164.756 126.444 C 164.683 126.444,164.165 126.849,163.603 127.343 C 157.590 132.636,145.168 133.730,136.502 129.730 C 113.238 118.990,117.756 83.665,142.904 79.673 C 144.179 79.471,145.372 79.266,145.556 79.217 C 146.142 79.064,152.060 79.319,153.525 79.562 M219.776 79.451 C 248.754 83.569,252.849 121.501,225.333 130.923 C 218.138 133.387,208.372 132.757,201.679 129.397 C 180.130 118.582,182.609 87.836,205.613 80.583 C 207.076 80.122,208.070 79.923,211.778 79.351 C 213.738 79.049,217.259 79.093,219.776 79.451 M266.176 109.444 C 266.251 144.790,266.281 144.191,264.238 148.340 C 261.365 154.178,256.393 156.078,244.333 155.949 L 238.778 155.889 238.719 149.505 L 238.660 143.121 239.163 143.011 C 239.440 142.950,241.717 142.873,244.222 142.839 C 249.973 142.762,250.990 142.351,251.565 139.872 C 251.681 139.372,251.769 126.371,251.772 109.407 C 251.775 93.131,251.839 79.655,251.914 79.460 C 252.035 79.143,252.814 79.111,259.081 79.164 L 266.111 79.222 266.176 109.444 M305.117 79.338 C 319.866 81.114,328.849 91.406,328.971 106.667 L 329.000 110.333 308.778 110.444 L 288.556 110.556 288.580 111.379 C 288.653 113.840,291.518 117.115,295.111 118.843 C 301.845 122.081,309.656 121.241,315.358 116.664 C 317.108 115.260,316.821 115.206,320.158 117.567 C 321.721 118.673,323.773 120.098,324.717 120.733 C 326.843 122.164,326.846 122.258,324.809 124.295 C 313.264 135.840,290.041 135.026,279.880 122.720 C 275.548 117.472,273.683 110.970,274.252 103.096 C 275.338 88.064,289.169 77.418,305.117 79.338 M300.000 91.039 C 293.571 92.081,289.425 95.124,288.759 99.291 L 288.610 100.222 301.774 100.222 L 314.938 100.222 314.793 99.389 C 313.868 94.093,306.571 89.975,300.000 91.039 M148.778 92.029 C 138.828 92.736,133.346 101.496,136.699 111.327 C 140.636 122.869,161.690 121.918,164.137 110.088 C 164.653 107.591,164.469 101.772,163.816 99.948 C 161.909 94.623,156.007 91.515,148.778 92.029 M213.556 92.021 C 198.836 93.280,196.601 114.769,210.742 119.075 C 220.475 122.038,229.352 115.814,229.374 106.010 C 229.394 96.943,222.923 91.220,213.556 92.021 M59.111 94.628 C 71.092 98.576,74.691 113.724,65.771 122.657 C 59.336 129.102,49.794 129.547,42.690 123.734 C 36.760 118.882,34.967 110.139,38.460 103.111 C 39.104 101.815,41.194 98.893,41.681 98.609 C 41.840 98.515,42.484 98.001,43.112 97.464 C 47.169 94.001,53.697 92.844,59.111 94.628 " stroke="none" fill="#fbfbfb" fill-rule="evenodd"></path><path id="path3" d="M337.111 98.844 C 337.111 124.267,337.173 131.973,337.378 132.178 C 337.897 132.697,350.376 132.543,350.659 132.015 C 350.803 131.745,350.889 129.020,350.889 124.697 L 350.889 117.810 351.500 117.329 C 351.836 117.065,353.691 115.351,355.622 113.520 C 357.552 111.690,359.247 110.230,359.387 110.277 C 359.527 110.324,361.078 112.356,362.834 114.792 C 364.590 117.229,366.746 120.215,367.625 121.429 C 368.503 122.643,369.522 124.059,369.889 124.575 C 372.856 128.756,375.158 131.836,375.556 132.160 C 375.803 132.361,377.882 132.432,383.618 132.437 C 392.424 132.445,392.194 132.501,390.728 130.725 C 390.248 130.143,388.313 127.629,386.428 125.139 C 384.542 122.649,381.500 118.642,379.667 116.234 C 377.833 113.826,374.941 110.013,373.240 107.761 C 371.539 105.509,369.745 103.181,369.254 102.587 L 368.362 101.507 369.797 100.142 C 370.587 99.392,372.980 97.131,375.116 95.119 C 377.252 93.107,380.100 90.406,381.444 89.118 C 382.789 87.830,385.614 85.142,387.722 83.145 C 389.831 81.148,391.556 79.424,391.556 79.313 C 391.556 79.195,387.805 79.111,382.578 79.111 L 373.600 79.111 371.064 81.500 C 369.670 82.814,366.290 85.989,363.552 88.556 C 360.815 91.122,357.121 94.590,355.344 96.261 C 353.566 97.932,351.836 99.514,351.500 99.777 L 350.889 100.254 350.889 83.140 C 350.889 73.728,350.814 65.980,350.722 65.923 C 350.631 65.867,350.582 73.611,350.614 83.132 C 350.652 94.604,350.748 100.444,350.897 100.444 C 351.020 100.444,351.594 100.019,352.171 99.500 C 353.493 98.312,368.033 84.725,372.256 80.731 L 373.735 79.333 382.423 79.333 C 387.398 79.333,391.111 79.418,391.111 79.533 C 391.111 79.642,390.736 80.056,390.278 80.452 C 389.819 80.848,388.442 82.134,387.217 83.308 C 385.167 85.275,380.443 89.742,375.791 94.111 C 371.690 97.964,368.547 101.000,368.376 101.274 C 368.212 101.537,369.696 103.633,374.004 109.222 C 374.570 109.956,376.017 111.856,377.222 113.444 C 378.426 115.033,380.026 117.133,380.777 118.111 C 381.528 119.089,383.128 121.189,384.332 122.778 C 385.537 124.367,387.152 126.486,387.922 127.488 C 390.585 130.953,391.109 131.667,391.110 131.833 C 391.111 131.925,387.625 132.000,383.364 132.000 L 375.617 132.000 374.439 130.389 C 373.791 129.503,372.894 128.278,372.445 127.667 C 371.997 127.056,370.694 125.256,369.550 123.667 C 368.407 122.078,366.765 119.812,365.902 118.632 C 365.039 117.452,363.333 115.081,362.111 113.363 C 359.456 109.632,359.445 109.625,357.929 111.036 C 357.295 111.627,355.402 113.400,353.724 114.975 L 350.673 117.839 350.614 124.864 L 350.556 131.889 343.943 131.948 L 337.330 132.007 337.387 98.892 C 337.419 80.679,337.369 65.778,337.278 65.778 C 337.186 65.778,337.111 80.658,337.111 98.844 M146.222 79.333 C 145.113 79.445,145.547 79.488,148.093 79.517 C 149.916 79.538,151.366 79.519,151.315 79.475 C 151.109 79.296,147.572 79.197,146.222 79.333 M165.241 79.457 C 164.961 79.738,164.889 80.327,164.889 82.349 C 164.889 84.874,164.777 85.224,164.194 84.522 C 163.702 83.928,161.740 82.545,160.498 81.916 C 158.845 81.079,158.746 81.206,160.370 82.082 C 161.123 82.488,162.387 83.335,163.179 83.966 C 165.311 85.662,165.333 85.645,165.333 82.327 L 165.333 79.543 172.000 79.605 C 176.373 79.645,178.641 79.590,178.593 79.444 C 178.453 79.026,165.660 79.038,165.241 79.457 M213.333 79.333 C 212.270 79.440,212.769 79.483,215.222 79.495 C 217.181 79.505,218.327 79.438,218.000 79.333 C 217.353 79.126,215.389 79.126,213.333 79.333 M252.148 79.259 C 252.067 79.341,252.000 79.466,252.000 79.537 C 252.000 79.608,255.100 79.639,258.889 79.605 L 265.778 79.543 265.806 110.605 C 265.821 127.689,265.913 141.217,266.011 140.667 C 266.459 138.150,266.250 79.586,265.792 79.341 C 265.316 79.086,252.399 79.009,252.148 79.259 M299.667 79.327 C 298.672 79.442,299.204 79.490,301.759 79.518 C 303.644 79.539,305.144 79.518,305.093 79.473 C 304.889 79.290,300.916 79.183,299.667 79.327 M142.667 79.778 C 141.889 80.027,143.133 80.027,144.111 79.778 L 144.778 79.608 144.000 79.604 C 143.572 79.602,142.972 79.680,142.667 79.778 M152.241 79.638 C 152.292 79.684,152.833 79.782,153.444 79.856 C 154.192 79.947,154.410 79.925,154.111 79.789 C 153.689 79.597,152.046 79.464,152.241 79.638 M209.556 79.778 L 209.000 79.956 209.556 79.965 C 209.861 79.970,210.511 79.892,211.000 79.791 L 211.889 79.607 211.000 79.603 C 210.511 79.601,209.861 79.680,209.556 79.778 M219.778 79.778 C 220.584 80.036,221.823 80.036,221.222 79.778 C 220.978 79.673,220.428 79.590,220.000 79.593 C 219.293 79.599,219.273 79.616,219.778 79.778 M296.000 79.778 C 295.223 80.027,296.466 80.027,297.444 79.778 L 298.111 79.608 297.333 79.604 C 296.906 79.602,296.306 79.680,296.000 79.778 M306.000 79.778 C 306.306 79.876,306.906 79.956,307.333 79.956 C 308.037 79.956,308.058 79.939,307.556 79.778 C 307.250 79.680,306.650 79.600,306.222 79.600 C 305.518 79.600,305.497 79.617,306.000 79.778 M140.556 80.222 L 140.111 80.413 140.556 80.407 C 140.800 80.403,141.250 80.320,141.556 80.222 L 142.111 80.044 141.556 80.038 C 141.250 80.034,140.800 80.117,140.556 80.222 M154.889 80.095 C 154.889 80.244,157.368 80.928,157.485 80.811 C 157.542 80.754,157.041 80.549,156.371 80.354 C 155.075 79.977,154.889 79.945,154.889 80.095 M207.222 80.222 C 206.841 80.386,206.872 80.415,207.444 80.425 C 207.811 80.432,208.261 80.341,208.444 80.222 C 208.879 79.941,207.876 79.941,207.222 80.222 M222.333 80.222 C 222.578 80.327,222.978 80.413,223.222 80.413 L 223.667 80.413 223.222 80.222 C 222.978 80.117,222.578 80.031,222.333 80.031 L 221.889 80.031 222.333 80.222 M293.778 80.222 L 293.222 80.400 293.778 80.400 C 294.083 80.400,294.583 80.320,294.889 80.222 L 295.444 80.044 294.889 80.044 C 294.583 80.044,294.083 80.124,293.778 80.222 M308.444 80.222 C 308.628 80.341,309.028 80.432,309.333 80.425 C 309.842 80.414,309.851 80.397,309.444 80.222 C 308.787 79.940,308.007 79.940,308.444 80.222 M139.111 80.667 C 138.815 80.858,138.815 80.882,139.111 80.882 C 139.294 80.882,139.594 80.785,139.778 80.667 C 140.074 80.475,140.074 80.451,139.778 80.451 C 139.594 80.451,139.294 80.548,139.111 80.667 M204.889 80.908 C 199.209 82.914,194.324 86.666,191.174 91.444 C 189.845 93.459,188.778 95.518,188.965 95.705 C 189.020 95.761,189.322 95.246,189.636 94.561 C 192.331 88.673,198.925 83.005,205.389 81.018 C 206.092 80.802,206.667 80.585,206.667 80.535 C 206.667 80.361,206.103 80.480,204.889 80.908 M224.111 80.667 C 224.775 80.952,225.331 80.952,224.889 80.667 C 224.706 80.548,224.356 80.457,224.111 80.463 L 223.667 80.476 224.111 80.667 M292.222 80.667 C 291.926 80.858,291.926 80.882,292.222 80.882 C 292.406 80.882,292.706 80.785,292.889 80.667 C 293.185 80.475,293.185 80.451,292.889 80.451 C 292.706 80.451,292.406 80.548,292.222 80.667 M310.000 80.535 C 310.000 80.585,310.625 80.825,311.389 81.068 C 312.153 81.312,312.978 81.586,313.222 81.677 C 313.522 81.789,313.594 81.770,313.444 81.617 C 313.080 81.247,310.000 80.279,310.000 80.535 M136.307 81.756 C 130.100 84.700,125.445 89.703,122.894 96.174 C 122.736 96.575,122.656 96.952,122.716 97.012 C 122.776 97.072,123.004 96.644,123.223 96.061 C 125.725 89.396,130.717 84.437,138.222 81.161 C 138.528 81.028,138.628 80.915,138.444 80.910 C 138.261 80.905,137.299 81.286,136.307 81.756 M158.000 81.111 C 158.183 81.230,158.483 81.327,158.667 81.327 C 158.963 81.327,158.963 81.303,158.667 81.111 C 158.483 80.993,158.183 80.896,158.000 80.896 C 157.704 80.896,157.704 80.920,158.000 81.111 M226.000 81.159 C 234.432 84.800,239.600 89.960,242.203 97.333 C 242.440 98.006,242.641 98.385,242.650 98.177 C 242.666 97.818,242.572 97.542,241.858 95.833 C 239.967 91.313,237.053 87.635,233.000 84.654 C 231.518 83.565,226.369 80.880,225.805 80.904 C 225.578 80.913,225.650 81.008,226.000 81.159 M291.111 81.049 C 290.928 81.118,290.539 81.263,290.247 81.371 C 289.955 81.480,289.759 81.611,289.811 81.663 C 289.923 81.775,291.478 81.263,291.700 81.041 C 291.876 80.865,291.592 80.869,291.111 81.049 M287.628 82.650 C 283.059 85.118,278.730 89.601,276.761 93.904 C 276.025 95.513,275.107 98.173,275.123 98.650 C 275.129 98.843,275.462 98.050,275.861 96.889 C 277.987 90.714,282.340 85.617,287.897 82.795 C 288.809 82.332,289.556 81.914,289.556 81.866 C 289.556 81.665,289.139 81.834,287.628 82.650 M315.333 82.691 C 320.989 85.770,325.238 90.880,327.228 96.997 C 327.567 98.041,327.890 98.851,327.945 98.796 C 328.201 98.539,326.433 93.961,325.364 92.111 C 323.079 88.160,319.166 84.366,315.417 82.467 C 313.440 81.466,313.380 81.628,315.333 82.691 M178.718 82.667 C 178.718 83.094,178.764 83.269,178.820 83.056 C 178.876 82.842,178.876 82.492,178.820 82.278 C 178.764 82.064,178.718 82.239,178.718 82.667 M178.738 86.889 C 178.738 87.683,178.778 88.008,178.827 87.611 C 178.877 87.214,178.877 86.564,178.827 86.167 C 178.778 85.769,178.738 86.094,178.738 86.889 M178.733 90.222 C 178.733 90.894,178.775 91.169,178.826 90.833 C 178.877 90.497,178.877 89.947,178.826 89.611 C 178.775 89.275,178.733 89.550,178.733 90.222 M299.010 90.860 C 298.648 90.938,299.879 91.001,301.744 91.000 C 303.610 91.000,304.905 90.935,304.624 90.855 C 303.970 90.671,299.875 90.674,299.010 90.860 M296.778 91.333 L 296.333 91.524 296.778 91.518 C 297.022 91.514,297.472 91.431,297.778 91.333 L 298.333 91.155 297.778 91.149 C 297.472 91.145,297.022 91.228,296.778 91.333 M306.222 91.379 C 310.083 92.486,312.510 94.208,313.986 96.889 C 314.356 97.561,314.660 97.989,314.663 97.840 C 314.694 95.698,308.682 91.030,306.025 91.134 C 305.510 91.154,305.532 91.182,306.222 91.379 M147.556 91.796 C 147.034 91.919,147.474 91.951,148.889 91.895 C 150.865 91.817,153.468 92.013,155.000 92.356 C 155.367 92.438,155.602 92.435,155.522 92.349 C 154.935 91.714,149.511 91.338,147.556 91.796 M212.556 91.665 C 212.433 91.706,211.733 91.914,211.000 92.127 C 206.486 93.438,201.759 97.837,201.780 100.708 C 201.781 100.869,202.183 100.179,202.672 99.175 C 205.026 94.354,209.254 91.953,215.444 91.924 C 217.477 91.914,218.247 91.852,217.667 91.745 C 216.784 91.582,212.981 91.523,212.556 91.665 M144.931 92.374 C 144.403 92.560,144.017 92.758,144.072 92.813 C 144.127 92.868,144.758 92.715,145.475 92.472 C 146.191 92.230,146.578 92.032,146.333 92.033 C 146.089 92.034,145.458 92.188,144.931 92.374 M219.333 92.252 C 223.445 93.369,226.773 96.134,228.326 99.724 C 228.552 100.245,228.783 100.624,228.841 100.566 C 229.195 100.213,227.333 97.235,225.746 95.615 C 223.942 93.774,220.562 91.959,219.050 92.020 C 218.704 92.034,218.789 92.104,219.333 92.252 M293.928 92.442 C 291.314 93.747,288.389 97.284,288.460 99.053 C 288.469 99.268,288.607 99.089,288.767 98.655 C 289.694 96.138,291.682 93.837,293.833 92.791 C 295.027 92.211,295.344 91.988,294.944 92.009 C 294.853 92.014,294.395 92.209,293.928 92.442 M156.000 92.667 C 156.183 92.785,156.483 92.882,156.667 92.882 C 156.963 92.882,156.963 92.858,156.667 92.667 C 156.483 92.548,156.183 92.451,156.000 92.451 C 155.704 92.451,155.704 92.475,156.000 92.667 M142.248 93.556 C 139.268 95.199,135.574 99.721,136.049 101.146 C 136.096 101.288,136.321 100.913,136.548 100.313 C 137.695 97.285,139.974 94.849,142.944 93.476 C 143.728 93.113,143.991 92.884,143.611 92.893 C 143.519 92.895,142.906 93.194,142.248 93.556 M157.111 92.978 C 157.111 93.026,157.528 93.284,158.038 93.549 C 161.141 95.167,163.251 97.619,164.141 100.642 L 164.443 101.667 164.338 100.778 C 164.157 99.251,162.952 97.224,161.297 95.663 C 159.648 94.108,157.111 92.480,157.111 92.978 M178.718 93.778 C 178.718 94.206,178.764 94.381,178.820 94.167 C 178.876 93.953,178.876 93.603,178.820 93.389 C 178.764 93.175,178.718 93.350,178.718 93.778 M188.377 96.916 C 188.170 97.459,188.005 98.050,188.010 98.230 C 188.016 98.409,188.216 98.056,188.455 97.444 C 188.693 96.833,188.858 96.242,188.821 96.131 C 188.784 96.020,188.584 96.373,188.377 96.916 M178.718 97.778 C 178.718 98.206,178.764 98.381,178.820 98.167 C 178.876 97.953,178.876 97.603,178.820 97.389 C 178.764 97.175,178.718 97.350,178.718 97.778 M122.342 97.889 C 122.256 98.256,122.094 98.845,121.982 99.200 C 121.870 99.554,121.787 100.054,121.798 100.311 C 121.809 100.568,122.006 100.078,122.237 99.222 C 122.467 98.367,122.621 97.567,122.578 97.444 C 122.535 97.322,122.429 97.522,122.342 97.889 M314.686 98.444 C 314.692 98.628,314.784 98.978,314.889 99.222 L 315.080 99.667 315.092 99.222 C 315.099 98.978,315.007 98.628,314.889 98.444 C 314.697 98.148,314.675 98.148,314.686 98.444 M187.667 99.333 C 187.582 99.717,187.563 100.082,187.624 100.143 C 187.685 100.204,187.805 99.940,187.889 99.556 C 187.973 99.171,187.992 98.807,187.931 98.746 C 187.870 98.685,187.751 98.949,187.667 99.333 M242.698 99.000 C 242.698 99.244,242.784 99.644,242.889 99.889 L 243.080 100.333 243.080 99.889 C 243.080 99.644,242.994 99.244,242.889 99.000 L 242.698 98.556 242.698 99.000 M274.778 99.778 C 274.693 100.162,274.674 100.526,274.735 100.587 C 274.797 100.648,274.916 100.384,275.000 100.000 C 275.084 99.616,275.103 99.252,275.042 99.190 C 274.981 99.129,274.862 99.394,274.778 99.778 M328.038 99.667 C 328.041 99.911,328.124 100.361,328.222 100.667 L 328.400 101.222 328.407 100.667 C 328.410 100.361,328.327 99.911,328.222 99.667 L 328.031 99.222 328.038 99.667 M187.228 101.375 C 187.138 101.948,187.112 102.548,187.170 102.708 C 187.228 102.869,187.349 102.531,187.438 101.958 C 187.528 101.385,187.555 100.785,187.497 100.625 C 187.439 100.465,187.318 100.802,187.228 101.375 M178.727 101.556 C 178.727 102.106,178.771 102.331,178.823 102.056 C 178.876 101.781,178.876 101.331,178.823 101.056 C 178.771 100.781,178.727 101.006,178.727 101.556 M243.149 101.222 C 243.159 102.284,243.509 103.233,243.518 102.222 C 243.521 101.794,243.438 101.244,243.333 101.000 C 243.171 100.623,243.143 100.656,243.149 101.222 M228.908 101.222 C 228.901 101.467,228.993 101.817,229.111 102.000 C 229.397 102.442,229.397 101.887,229.111 101.222 L 228.920 100.778 228.908 101.222 M121.476 101.944 C 121.298 103.022,121.341 108.134,121.536 109.000 C 121.618 109.367,121.682 107.742,121.679 105.389 C 121.672 100.705,121.674 100.746,121.476 101.944 M201.485 101.418 C 201.402 101.636,201.340 101.981,201.347 102.185 C 201.357 102.430,201.434 102.374,201.576 102.019 C 201.694 101.724,201.756 101.379,201.714 101.252 C 201.672 101.126,201.569 101.201,201.485 101.418 M274.361 102.028 C 274.182 102.923,274.222 109.063,274.411 109.735 C 274.491 110.018,274.556 108.243,274.556 105.791 C 274.556 103.339,274.543 101.333,274.528 101.333 C 274.512 101.333,274.438 101.646,274.361 102.028 M135.716 102.000 C 135.631 102.306,135.569 102.806,135.579 103.111 C 135.593 103.589,135.625 103.563,135.810 102.922 C 135.928 102.513,135.990 102.013,135.948 101.811 C 135.893 101.552,135.826 101.607,135.716 102.000 M328.490 102.222 C 328.486 102.650,328.561 103.500,328.656 104.111 L 328.830 105.222 328.833 104.000 C 328.835 103.328,328.760 102.478,328.667 102.111 L 328.497 101.444 328.490 102.222 M164.536 105.778 C 164.536 107.917,164.569 108.792,164.610 107.722 C 164.651 106.653,164.651 104.903,164.610 103.833 C 164.569 102.764,164.536 103.639,164.536 105.778 M201.032 103.500 C 200.849 104.606,200.891 107.525,201.099 108.222 C 201.191 108.528,201.261 107.404,201.256 105.722 C 201.246 102.385,201.234 102.273,201.032 103.500 M229.441 106.024 C 229.441 107.745,229.507 108.918,229.587 108.632 C 229.782 107.938,229.787 103.769,229.594 103.281 C 229.510 103.069,229.441 104.303,229.441 106.024 M243.638 106.000 C 243.638 107.283,243.674 107.808,243.719 107.167 C 243.764 106.525,243.764 105.475,243.719 104.833 C 243.674 104.192,243.638 104.717,243.638 106.000 M186.960 105.556 C 186.960 106.350,187.000 106.675,187.050 106.278 C 187.099 105.881,187.099 105.231,187.050 104.833 C 187.000 104.436,186.960 104.761,186.960 105.556 M178.727 105.556 C 178.727 106.106,178.771 106.331,178.823 106.056 C 178.876 105.781,178.876 105.331,178.823 105.056 C 178.771 104.781,178.727 105.006,178.727 105.556 M328.883 108.222 L 328.778 110.111 308.360 110.168 L 287.942 110.225 288.061 111.112 C 288.434 113.891,292.928 119.175,294.861 119.106 C 295.060 119.099,293.925 118.233,293.709 118.227 C 292.280 118.188,288.614 113.406,288.408 111.312 L 288.333 110.556 308.474 110.499 C 331.482 110.434,329.167 110.706,329.059 108.077 L 328.988 106.333 328.883 108.222 M135.597 108.000 C 135.592 108.428,135.673 108.978,135.778 109.222 C 136.032 109.813,136.032 108.887,135.778 107.889 L 135.608 107.222 135.597 108.000 M187.163 108.889 C 187.164 109.869,187.495 111.326,187.516 110.444 C 187.524 110.139,187.447 109.489,187.346 109.000 L 187.162 108.111 187.163 108.889 M243.248 109.748 C 243.160 110.404,243.136 110.988,243.194 111.046 C 243.343 111.195,243.623 109.202,243.504 108.847 C 243.450 108.687,243.335 109.092,243.248 109.748 M201.352 109.444 C 201.346 109.689,201.437 110.039,201.556 110.222 C 201.841 110.664,201.841 110.109,201.556 109.444 L 201.365 109.000 201.352 109.444 M229.016 109.905 C 228.934 110.230,228.917 110.547,228.978 110.608 C 229.039 110.669,229.156 110.453,229.238 110.127 C 229.320 109.801,229.337 109.485,229.276 109.424 C 229.214 109.363,229.098 109.579,229.016 109.905 M121.820 110.556 C 121.814 110.922,121.895 111.422,122.000 111.667 L 122.191 112.111 122.180 111.667 C 122.174 111.422,122.093 110.922,122.000 110.556 L 121.830 109.889 121.820 110.556 M136.100 110.556 C 136.806 114.016,142.037 119.222,144.683 119.096 C 144.857 119.088,144.750 118.970,144.444 118.834 C 141.414 117.488,140.923 117.176,139.422 115.647 C 137.970 114.168,136.451 111.724,136.441 110.847 C 136.439 110.687,136.331 110.406,136.201 110.222 C 136.020 109.968,135.996 110.048,136.100 110.556 M164.123 110.627 C 164.032 111.033,164.012 111.420,164.079 111.487 C 164.246 111.654,164.511 110.531,164.388 110.176 C 164.334 110.018,164.214 110.221,164.123 110.627 M201.778 110.913 C 201.778 111.460,203.161 113.968,204.129 115.175 C 205.416 116.780,208.845 119.142,209.824 119.098 C 209.982 119.091,209.595 118.851,208.963 118.564 C 206.040 117.234,203.380 114.488,202.337 111.722 C 201.943 110.677,201.778 110.437,201.778 110.913 M274.704 111.333 C 274.701 111.639,274.784 112.089,274.889 112.333 L 275.080 112.778 275.073 112.333 C 275.070 112.089,274.987 111.639,274.889 111.333 L 274.711 110.778 274.704 111.333 M187.562 111.667 C 187.562 111.911,187.659 112.261,187.778 112.444 C 187.956 112.720,187.993 112.701,187.993 112.333 C 187.993 112.089,187.896 111.739,187.778 111.556 C 187.599 111.280,187.562 111.299,187.562 111.667 M242.608 112.788 C 242.393 113.614,242.259 114.333,242.310 114.384 C 242.453 114.527,243.145 112.005,243.068 111.622 C 243.031 111.437,242.824 111.962,242.608 112.788 M163.324 112.748 C 161.781 115.837,158.326 118.184,153.778 119.229 C 153.029 119.401,152.783 119.519,153.143 119.533 C 154.578 119.588,158.568 117.954,160.333 116.588 C 162.042 115.266,164.332 112.258,163.934 111.860 C 163.873 111.799,163.599 112.199,163.324 112.748 M227.695 113.223 C 226.616 115.286,224.133 117.648,222.357 118.300 C 222.126 118.385,221.995 118.513,222.066 118.585 C 222.827 119.346,228.790 113.362,228.407 112.222 C 228.366 112.102,228.046 112.553,227.695 113.223 M122.253 112.556 C 122.253 112.800,122.339 113.200,122.444 113.444 L 122.635 113.889 122.635 113.444 C 122.635 113.200,122.549 112.800,122.444 112.556 L 122.253 112.111 122.253 112.556 M275.127 113.127 C 275.107 113.577,275.797 115.611,275.926 115.482 C 275.980 115.428,275.826 114.797,275.583 114.081 C 275.341 113.364,275.136 112.935,275.127 113.127 M188.101 113.722 C 189.181 118.132,193.770 124.311,198.127 127.222 C 200.933 129.096,205.996 131.411,206.402 131.005 C 206.513 130.894,206.442 130.866,205.000 130.435 C 197.886 128.310,190.891 121.427,188.539 114.237 C 188.149 113.044,187.849 112.691,188.101 113.722 M122.667 114.090 C 122.667 115.127,125.121 119.847,126.785 122.009 C 129.219 125.172,137.125 130.950,137.924 130.150 C 137.975 130.099,137.256 129.696,136.325 129.254 C 132.682 127.524,129.221 124.731,126.765 121.539 C 125.618 120.048,123.111 115.323,123.111 114.652 C 123.111 114.430,123.011 114.187,122.889 114.111 C 122.767 114.036,122.667 114.026,122.667 114.090 M241.715 115.565 C 241.508 116.092,241.381 116.566,241.434 116.619 C 241.569 116.754,242.248 115.077,242.162 114.819 C 242.123 114.702,241.922 115.038,241.715 115.565 M316.229 116.104 C 315.945 116.406,314.925 117.170,313.962 117.803 C 312.999 118.435,312.256 118.997,312.311 119.052 C 312.427 119.168,314.820 117.582,316.134 116.516 L 317.046 115.777 320.356 118.094 C 322.177 119.368,324.242 120.827,324.946 121.336 L 326.225 122.262 325.363 123.241 C 322.840 126.108,318.211 129.052,313.667 130.680 C 313.056 130.899,312.726 131.086,312.934 131.095 C 313.297 131.110,313.604 131.006,315.333 130.276 C 319.757 128.410,324.314 125.257,325.991 122.901 L 326.455 122.250 325.957 121.785 C 325.683 121.530,324.406 120.594,323.118 119.704 C 321.831 118.815,319.960 117.517,318.961 116.821 C 316.873 115.367,316.912 115.377,316.229 116.104 M178.718 117.333 C 178.718 117.761,178.764 117.936,178.820 117.722 C 178.876 117.508,178.876 117.158,178.820 116.944 C 178.764 116.731,178.718 116.906,178.718 117.333 M240.235 118.532 C 237.812 122.921,233.432 126.942,228.546 129.262 C 227.625 129.700,226.918 130.103,226.974 130.159 C 227.104 130.289,229.672 129.068,231.182 128.158 C 234.368 126.239,238.415 122.251,239.979 119.489 C 240.235 119.037,240.649 118.305,240.900 117.863 C 241.150 117.421,241.311 117.014,241.256 116.960 C 241.202 116.906,240.742 117.613,240.235 118.532 M276.446 116.959 C 276.438 117.903,279.084 121.751,281.222 123.907 C 283.921 126.628,288.582 129.804,289.827 129.770 C 289.983 129.766,289.161 129.267,288.000 128.661 C 283.597 126.362,277.348 120.288,277.332 118.289 C 277.331 118.191,277.132 117.811,276.889 117.444 C 276.646 117.078,276.447 116.859,276.446 116.959 M220.444 119.045 C 220.017 119.234,218.967 119.516,218.111 119.674 C 217.035 119.872,216.795 119.965,217.333 119.977 C 217.761 119.987,218.611 119.859,219.222 119.693 C 220.538 119.336,222.030 118.703,221.556 118.703 C 221.372 118.703,220.872 118.857,220.444 119.045 M145.556 119.333 C 145.861 119.431,146.411 119.509,146.778 119.507 L 147.444 119.503 146.778 119.333 C 146.411 119.240,145.861 119.162,145.556 119.160 L 145.000 119.155 145.556 119.333 M210.444 119.333 C 210.628 119.452,210.978 119.543,211.222 119.537 L 211.667 119.524 211.222 119.333 C 210.558 119.048,210.003 119.048,210.444 119.333 M296.333 119.786 C 297.067 120.136,297.867 120.424,298.111 120.426 C 298.356 120.428,297.806 120.133,296.889 119.771 C 294.810 118.950,294.594 118.956,296.333 119.786 M310.051 119.732 C 309.162 120.037,308.476 120.328,308.527 120.378 C 308.659 120.511,310.897 119.820,311.556 119.444 C 312.316 119.010,311.950 119.080,310.051 119.732 M148.833 119.719 C 149.475 119.764,150.525 119.764,151.167 119.719 C 151.808 119.674,151.283 119.638,150.000 119.638 C 148.717 119.638,148.192 119.674,148.833 119.719 M212.222 119.778 C 212.528 119.876,213.178 119.954,213.667 119.952 L 214.556 119.949 213.667 119.765 C 213.178 119.664,212.528 119.585,212.222 119.591 L 211.667 119.600 212.222 119.778 M178.749 122.000 C 178.749 123.283,178.786 123.808,178.830 123.167 C 178.875 122.525,178.875 121.475,178.830 120.833 C 178.786 120.192,178.749 120.717,178.749 122.000 M299.111 120.667 C 299.294 120.785,299.794 120.872,300.222 120.859 L 301.000 120.836 300.333 120.667 C 299.291 120.402,298.701 120.402,299.111 120.667 M306.444 120.667 C 305.939 120.828,305.960 120.845,306.667 120.851 C 307.094 120.855,307.644 120.772,307.889 120.667 C 308.490 120.408,307.251 120.408,306.444 120.667 M302.611 121.050 C 303.008 121.099,303.658 121.099,304.056 121.050 C 304.453 121.000,304.128 120.960,303.333 120.960 C 302.539 120.960,302.214 121.000,302.611 121.050 M163.983 126.589 C 163.687 126.913,162.547 127.763,161.451 128.478 C 160.354 129.193,159.564 129.778,159.694 129.778 C 160.033 129.778,162.588 128.101,163.833 127.062 C 165.188 125.932,165.212 125.995,165.059 130.303 C 164.994 132.153,165.018 133.417,165.114 133.111 C 165.210 132.806,165.299 131.081,165.311 129.278 C 165.336 125.643,165.165 125.297,163.983 126.589 M178.718 128.889 C 178.718 129.317,178.764 129.492,178.820 129.278 C 178.876 129.064,178.876 128.714,178.820 128.500 C 178.764 128.286,178.718 128.461,178.718 128.889 M290.344 129.955 C 290.658 130.218,292.239 130.724,292.362 130.601 C 292.421 130.542,291.995 130.333,291.417 130.136 C 290.233 129.733,290.041 129.700,290.344 129.955 M138.556 130.444 C 139.220 130.730,139.775 130.730,139.333 130.444 C 139.150 130.326,138.800 130.235,138.556 130.241 L 138.111 130.253 138.556 130.444 M156.667 130.678 C 156.117 130.903,155.867 131.085,156.111 131.083 C 156.356 131.080,156.956 130.893,157.444 130.667 C 158.594 130.134,157.972 130.143,156.667 130.678 M225.778 130.444 C 225.481 130.636,225.481 130.660,225.778 130.660 C 225.961 130.660,226.261 130.563,226.444 130.444 C 226.741 130.253,226.741 130.229,226.444 130.229 C 226.261 130.229,225.961 130.326,225.778 130.444 M140.000 130.889 C 140.183 131.007,140.533 131.099,140.778 131.092 L 141.222 131.080 140.778 130.889 C 140.113 130.603,139.558 130.603,140.000 130.889 M224.444 130.889 C 224.148 131.080,224.148 131.104,224.444 131.104 C 224.628 131.104,224.928 131.007,225.111 130.889 C 225.407 130.697,225.407 130.673,225.111 130.673 C 224.928 130.673,224.628 130.770,224.444 130.889 M292.667 130.762 C 292.667 130.908,295.014 131.558,295.479 131.540 C 295.704 131.531,295.239 131.335,294.444 131.103 C 292.913 130.657,292.667 130.610,292.667 130.762 M141.667 131.333 C 141.911 131.438,142.311 131.524,142.556 131.524 L 143.000 131.524 142.556 131.333 C 142.311 131.228,141.911 131.142,141.667 131.142 L 141.222 131.142 141.667 131.333 M154.000 131.333 C 153.458 131.507,153.461 131.511,154.111 131.518 C 154.478 131.521,154.978 131.438,155.222 131.333 C 155.830 131.072,154.815 131.072,154.000 131.333 M207.222 131.333 C 207.467 131.438,207.917 131.524,208.222 131.524 C 208.729 131.524,208.738 131.507,208.333 131.333 C 208.089 131.228,207.639 131.142,207.333 131.142 C 206.827 131.142,206.817 131.159,207.222 131.333 M222.778 131.333 L 222.333 131.524 222.778 131.524 C 223.022 131.524,223.422 131.438,223.667 131.333 L 224.111 131.142 223.667 131.142 C 223.422 131.142,223.022 131.228,222.778 131.333 M311.222 131.333 L 310.778 131.524 311.222 131.524 C 311.467 131.524,311.867 131.438,312.111 131.333 L 312.556 131.142 312.111 131.142 C 311.867 131.142,311.467 131.228,311.222 131.333 M143.889 131.769 C 144.549 131.946,147.938 132.076,147.759 131.918 C 147.708 131.873,146.667 131.781,145.444 131.713 C 144.167 131.643,143.506 131.666,143.889 131.769 M150.556 131.778 L 149.444 131.930 150.778 131.943 C 151.511 131.950,152.361 131.876,152.667 131.778 C 153.387 131.547,152.237 131.547,150.556 131.778 M209.444 131.778 C 209.689 131.883,210.239 131.966,210.667 131.962 C 211.374 131.956,211.394 131.940,210.889 131.778 C 210.082 131.520,208.843 131.520,209.444 131.778 M220.111 131.778 C 219.510 132.036,220.749 132.036,221.556 131.778 C 222.061 131.616,222.040 131.599,221.333 131.593 C 220.906 131.590,220.356 131.673,220.111 131.778 M296.444 131.778 C 296.750 131.876,297.350 131.954,297.778 131.952 L 298.556 131.949 297.667 131.765 C 296.480 131.519,295.664 131.528,296.444 131.778 M308.778 131.778 L 308.111 131.947 308.889 131.958 C 309.317 131.964,309.867 131.883,310.111 131.778 C 310.702 131.524,309.776 131.524,308.778 131.778 M212.333 132.235 C 213.460 132.468,217.132 132.467,218.444 132.234 C 219.118 132.114,218.138 132.055,215.444 132.053 C 212.772 132.052,211.739 132.112,212.333 132.235 M299.889 132.247 C 300.743 132.433,306.349 132.436,307.208 132.251 C 307.567 132.174,305.917 132.109,303.542 132.106 C 301.166 132.104,299.522 132.167,299.889 132.247 M178.486 132.691 C 178.463 133.010,178.392 133.760,178.328 134.358 C 178.231 135.260,178.251 135.352,178.449 134.898 C 178.580 134.598,178.651 133.848,178.607 133.231 C 178.563 132.615,178.508 132.372,178.486 132.691 M164.556 134.222 C 164.472 134.485,164.454 134.750,164.515 134.811 C 164.576 134.872,164.694 134.707,164.778 134.444 C 164.861 134.182,164.879 133.917,164.818 133.855 C 164.757 133.794,164.639 133.959,164.556 134.222 M163.831 136.043 C 163.054 137.800,159.948 140.725,158.135 141.408 C 157.903 141.495,157.773 141.624,157.844 141.696 C 158.108 141.960,160.599 140.315,161.916 139.006 C 163.143 137.786,164.638 135.453,164.367 135.182 C 164.308 135.123,164.067 135.510,163.831 136.043 M177.690 137.359 C 175.858 144.498,170.553 150.500,163.538 153.368 C 162.575 153.761,161.832 154.128,161.886 154.182 C 162.166 154.462,166.074 152.552,168.325 151.035 C 173.103 147.814,178.794 139.170,178.180 136.067 C 178.142 135.875,177.922 136.456,177.690 137.359 M130.261 141.285 L 125.745 145.667 127.150 147.008 C 129.125 148.893,133.603 152.000,134.345 152.000 C 134.394 152.000,135.061 152.282,135.828 152.628 C 137.933 153.575,138.670 153.849,138.790 153.729 C 138.850 153.669,138.422 153.438,137.838 153.217 C 133.647 151.623,130.400 149.665,127.500 146.983 C 125.960 145.559,125.967 145.641,127.278 144.432 C 127.858 143.896,129.816 142.036,131.628 140.298 L 134.923 137.139 136.406 138.347 C 137.859 139.531,142.008 141.795,142.667 141.764 C 142.850 141.755,142.750 141.638,142.444 141.504 C 140.063 140.461,138.087 139.330,136.684 138.208 C 135.777 137.483,134.977 136.892,134.906 136.897 C 134.836 136.901,132.745 138.876,130.261 141.285 M251.719 139.418 C 251.564 140.450,250.813 142.000,250.469 142.000 C 250.181 142.000,249.435 142.652,249.714 142.660 C 250.705 142.686,252.124 140.370,251.961 138.993 C 251.897 138.452,251.853 138.528,251.719 139.418 M143.333 142.000 C 143.517 142.118,143.917 142.210,144.222 142.203 C 144.731 142.192,144.740 142.175,144.333 142.000 C 143.676 141.717,142.896 141.717,143.333 142.000 M156.667 142.000 C 156.370 142.191,156.370 142.215,156.667 142.215 C 156.850 142.215,157.150 142.118,157.333 142.000 C 157.630 141.809,157.630 141.785,157.333 141.785 C 157.150 141.785,156.850 141.882,156.667 142.000 M145.444 142.444 C 145.689 142.549,146.239 142.631,146.667 142.625 L 147.444 142.614 146.778 142.444 C 145.780 142.190,144.853 142.190,145.444 142.444 M154.889 142.444 C 154.344 142.619,154.347 142.623,155.000 142.641 C 155.367 142.651,155.817 142.563,156.000 142.444 C 156.421 142.172,155.739 142.172,154.889 142.444 M265.267 144.333 C 264.467 148.330,262.376 151.402,259.186 153.269 C 257.740 154.115,257.394 154.545,258.702 153.873 C 262.517 151.910,266.126 146.283,265.733 142.907 C 265.696 142.585,265.491 143.212,265.267 144.333 M148.778 142.899 C 150.213 143.123,152.843 143.117,153.556 142.889 C 153.886 142.783,152.805 142.714,150.889 142.719 C 148.525 142.724,147.963 142.772,148.778 142.899 M247.889 142.889 L 247.222 143.059 247.889 143.069 C 248.256 143.075,248.756 142.994,249.000 142.889 L 249.444 142.698 249.000 142.709 C 248.756 142.714,248.256 142.796,247.889 142.889 M238.815 143.259 C 238.630 143.444,238.617 155.168,238.802 155.648 C 238.949 156.034,248.759 156.156,250.889 155.800 C 251.439 155.708,249.011 155.680,245.493 155.739 L 239.098 155.845 239.160 149.478 C 239.194 145.976,239.164 143.111,239.093 143.111 C 239.021 143.111,238.896 143.178,238.815 143.259 M139.111 153.845 C 139.111 154.055,141.313 154.704,141.719 154.614 C 141.944 154.564,141.684 154.421,141.111 154.280 C 140.561 154.144,139.886 153.964,139.611 153.879 C 139.336 153.795,139.111 153.780,139.111 153.845 M159.667 154.631 C 158.933 154.823,158.499 155.015,158.701 155.058 C 159.074 155.137,161.556 154.493,161.556 154.318 C 161.556 154.176,161.147 154.244,159.667 154.631 M256.667 154.444 C 256.370 154.636,256.370 154.660,256.667 154.660 C 256.850 154.660,257.150 154.563,257.333 154.444 C 257.630 154.253,257.630 154.229,257.333 154.229 C 257.150 154.229,256.850 154.326,256.667 154.444 M142.556 154.889 C 142.800 154.994,143.300 155.077,143.667 155.073 C 144.317 155.067,144.320 155.062,143.778 154.889 C 142.963 154.628,141.948 154.628,142.556 154.889 M255.111 154.889 C 254.835 155.067,254.854 155.104,255.222 155.104 C 255.467 155.104,255.817 155.007,256.000 154.889 C 256.276 154.711,256.257 154.673,255.889 154.673 C 255.644 154.673,255.294 154.770,255.111 154.889 M144.889 155.333 C 145.194 155.431,145.794 155.511,146.222 155.511 C 146.926 155.511,146.947 155.494,146.444 155.333 C 146.139 155.235,145.539 155.155,145.111 155.155 C 144.407 155.155,144.386 155.172,144.889 155.333 M156.222 155.333 C 155.719 155.494,155.741 155.511,156.444 155.511 C 156.872 155.511,157.472 155.431,157.778 155.333 C 158.281 155.172,158.259 155.155,157.556 155.155 C 157.128 155.155,156.528 155.235,156.222 155.333 M252.667 155.333 C 252.162 155.495,252.182 155.512,252.889 155.518 C 253.317 155.521,253.867 155.438,254.111 155.333 C 254.712 155.075,253.473 155.075,252.667 155.333 M148.444 155.791 C 150.036 156.006,152.737 156.011,154.000 155.801 C 154.638 155.694,153.592 155.632,151.111 155.630 C 148.481 155.627,147.618 155.679,148.444 155.791 " stroke="none" fill="#848484" fill-rule="evenodd"></path><path id="path4" d="M340.625 65.722 C 342.496 65.759,345.496 65.759,347.292 65.722 C 349.087 65.684,347.556 65.654,343.889 65.654 C 340.222 65.654,338.753 65.685,340.625 65.722 M48.556 66.023 C 23.860 69.031,6.213 90.695,8.661 115.000 C 9.305 121.392,11.446 128.242,14.213 132.763 C 14.707 133.570,15.111 134.279,15.111 134.340 C 15.111 134.400,15.477 134.973,15.924 135.613 C 21.402 143.460,27.118 148.222,35.889 152.245 C 43.878 155.910,51.538 146.746,46.528 139.516 C 45.557 138.115,41.850 135.556,40.791 135.556 C 40.747 135.556,40.050 135.153,39.241 134.662 C 32.742 130.714,27.995 124.142,26.481 117.000 C 25.860 114.065,25.778 113.321,25.778 110.594 C 25.778 107.568,26.072 105.517,26.899 102.778 C 27.158 101.922,27.426 101.022,27.497 100.778 C 27.778 99.796,29.891 96.007,31.075 94.361 C 42.228 78.851,66.173 79.240,76.754 95.101 C 86.460 109.651,81.409 128.081,65.539 136.017 C 63.547 137.014,62.506 137.689,61.675 138.524 C 56.427 143.799,60.213 152.881,67.679 152.923 C 73.662 152.957,85.343 144.639,90.819 136.444 C 92.904 133.325,95.329 128.940,95.335 128.280 C 95.335 128.187,95.465 127.861,95.622 127.556 C 96.237 126.358,97.540 122.249,97.876 120.444 C 97.955 120.017,98.182 118.817,98.379 117.778 C 99.171 113.597,98.836 105.889,97.630 100.559 C 93.996 84.497,81.327 71.442,65.322 67.265 C 60.054 65.890,53.583 65.411,48.556 66.023 M59.778 66.463 C 72.321 67.995,84.737 75.905,91.444 86.637 C 91.567 86.833,91.932 87.398,92.255 87.893 C 96.581 94.506,99.456 107.024,98.441 114.824 C 97.474 122.257,95.292 129.092,92.627 133.040 C 92.282 133.551,92.000 134.035,92.000 134.116 C 92.000 134.354,90.219 136.874,88.825 138.608 C 86.090 142.010,79.987 147.484,77.577 148.696 C 77.260 148.856,76.600 149.245,76.111 149.562 C 75.283 150.098,73.070 151.203,71.387 151.921 C 63.135 155.440,55.796 145.749,61.618 139.020 C 62.498 138.002,63.124 137.571,65.284 136.495 C 75.378 131.469,81.231 123.015,81.859 112.556 C 83.184 90.477,60.050 75.604,40.444 85.930 C 23.627 94.789,20.280 117.195,33.762 130.672 C 36.659 133.568,38.517 134.816,43.175 136.998 C 51.440 140.868,47.400 154.426,38.503 152.676 C 37.103 152.401,36.345 152.118,33.778 150.914 C 20.826 144.841,11.306 131.655,9.131 116.778 C 8.782 114.392,8.747 106.034,9.079 104.333 C 9.657 101.368,9.853 100.488,10.269 99.000 C 11.490 94.626,13.624 89.836,15.582 87.077 C 15.812 86.752,16.001 86.402,16.002 86.299 C 16.004 86.196,16.440 85.532,16.971 84.824 C 23.005 76.788,29.924 71.748,39.778 68.211 C 44.932 66.362,53.103 65.647,59.778 66.463 M336.944 98.917 C 336.892 130.146,336.910 131.962,337.278 132.251 C 337.622 132.521,337.635 132.515,337.390 132.200 C 337.172 131.921,337.100 124.794,337.056 98.867 L 336.999 65.889 336.944 98.917 M146.167 79.268 C 146.442 79.321,146.892 79.321,147.167 79.268 C 147.442 79.215,147.217 79.172,146.667 79.172 C 146.117 79.172,145.892 79.215,146.167 79.268 M149.167 79.264 C 149.381 79.320,149.731 79.320,149.944 79.264 C 150.158 79.208,149.983 79.163,149.556 79.163 C 149.128 79.163,148.953 79.208,149.167 79.264 M178.649 79.945 C 178.755 80.712,178.771 80.727,178.844 80.140 C 178.888 79.789,178.836 79.414,178.729 79.306 C 178.617 79.195,178.583 79.467,178.649 79.945 M213.278 79.268 C 213.553 79.321,214.003 79.321,214.278 79.268 C 214.553 79.215,214.328 79.172,213.778 79.172 C 213.228 79.172,213.003 79.215,213.278 79.268 M299.500 79.268 C 299.775 79.321,300.225 79.321,300.500 79.268 C 300.775 79.215,300.550 79.172,300.000 79.172 C 299.450 79.172,299.225 79.215,299.500 79.268 M302.944 79.264 C 303.158 79.320,303.508 79.320,303.722 79.264 C 303.936 79.208,303.761 79.163,303.333 79.163 C 302.906 79.163,302.731 79.208,302.944 79.264 M151.611 79.487 C 151.825 79.542,152.175 79.542,152.389 79.487 C 152.603 79.431,152.428 79.385,152.000 79.385 C 151.572 79.385,151.397 79.431,151.611 79.487 M218.722 79.487 C 218.936 79.542,219.286 79.542,219.500 79.487 C 219.714 79.431,219.539 79.385,219.111 79.385 C 218.683 79.385,218.508 79.431,218.722 79.487 M251.886 109.000 C 251.886 125.256,251.912 131.873,251.944 123.705 C 251.977 115.537,251.977 102.237,251.944 94.149 C 251.912 86.062,251.886 92.744,251.886 109.000 M390.104 80.944 L 388.778 82.333 390.167 81.007 C 390.931 80.277,391.556 79.652,391.556 79.618 C 391.556 79.454,391.336 79.654,390.104 80.944 M369.556 82.778 C 369.016 83.328,368.624 83.778,368.685 83.778 C 368.746 83.778,369.238 83.328,369.778 82.778 C 370.318 82.228,370.709 81.778,370.648 81.778 C 370.587 81.778,370.095 82.228,369.556 82.778 M385.992 84.833 L 384.778 86.111 386.056 84.896 C 386.758 84.228,387.333 83.653,387.333 83.619 C 387.333 83.454,387.121 83.646,385.992 84.833 M164.049 84.341 C 164.381 84.690,164.693 84.932,164.742 84.877 C 164.790 84.822,164.518 84.536,164.137 84.241 L 163.444 83.705 164.049 84.341 M236.000 87.222 C 236.787 88.017,237.482 88.667,237.543 88.667 C 237.604 88.667,237.010 88.017,236.222 87.222 C 235.435 86.428,234.741 85.778,234.680 85.778 C 234.618 85.778,235.213 86.428,236.000 87.222 M281.215 87.389 L 279.889 88.778 281.278 87.451 C 282.042 86.722,282.667 86.097,282.667 86.063 C 282.667 85.898,282.447 86.099,281.215 87.389 M193.881 87.833 L 192.778 89.000 193.944 87.897 C 195.029 86.873,195.213 86.667,195.047 86.667 C 195.012 86.667,194.487 87.192,193.881 87.833 M382.326 88.278 L 381.000 89.667 382.389 88.340 C 383.153 87.611,383.778 86.986,383.778 86.951 C 383.778 86.787,383.558 86.988,382.326 88.278 M362.659 89.278 L 361.444 90.556 362.722 89.341 C 363.909 88.212,364.102 88.000,363.937 88.000 C 363.902 88.000,363.327 88.575,362.659 89.278 M178.727 92.222 C 178.727 92.772,178.771 92.997,178.823 92.722 C 178.876 92.447,178.876 91.997,178.823 91.722 C 178.771 91.447,178.727 91.672,178.727 92.222 M359.333 92.333 C 358.794 92.883,358.402 93.333,358.463 93.333 C 358.524 93.333,359.016 92.883,359.556 92.333 C 360.095 91.783,360.487 91.333,360.426 91.333 C 360.365 91.333,359.873 91.783,359.333 92.333 M377.778 92.556 C 377.238 93.106,376.846 93.556,376.907 93.556 C 376.969 93.556,377.460 93.106,378.000 92.556 C 378.540 92.006,378.931 91.556,378.870 91.556 C 378.809 91.556,378.318 92.006,377.778 92.556 M50.222 94.092 C 47.275 94.800,44.932 95.911,43.112 97.464 C 42.484 98.001,41.840 98.515,41.681 98.609 C 39.217 100.050,36.774 106.125,36.786 110.778 C 36.813 120.528,43.926 127.643,53.667 127.661 C 56.547 127.666,57.343 127.558,59.222 126.906 C 68.590 123.658,73.203 113.192,69.344 103.944 C 66.381 96.844,57.601 92.320,50.222 94.092 M58.333 94.712 C 70.334 98.147,74.481 113.198,65.905 122.193 C 53.478 135.226,32.026 122.231,37.891 105.222 C 40.737 96.967,49.847 92.284,58.333 94.712 M355.548 95.944 L 354.333 97.222 355.611 96.008 C 356.798 94.879,356.991 94.667,356.826 94.667 C 356.791 94.667,356.216 95.242,355.548 95.944 M373.771 96.389 L 372.333 97.889 373.833 96.451 C 374.658 95.660,375.333 94.985,375.333 94.951 C 375.333 94.787,375.107 94.996,373.771 96.389 M139.321 95.944 L 138.556 96.778 139.389 96.012 C 140.165 95.299,140.324 95.111,140.155 95.111 C 140.118 95.111,139.743 95.486,139.321 95.944 M161.444 96.222 C 161.922 96.711,162.362 97.111,162.424 97.111 C 162.485 97.111,162.144 96.711,161.667 96.222 C 161.189 95.733,160.749 95.333,160.688 95.333 C 160.626 95.333,160.967 95.733,161.444 96.222 M225.111 95.403 C 225.111 95.441,225.436 95.766,225.833 96.125 L 226.556 96.778 225.903 96.056 C 225.294 95.382,225.111 95.231,225.111 95.403 M352.432 98.833 L 351.667 99.667 352.500 98.901 C 352.958 98.480,353.333 98.105,353.333 98.068 C 353.333 97.898,353.145 98.058,352.432 98.833 M288.519 99.778 L 288.556 100.333 301.775 100.333 C 314.830 100.333,314.994 100.328,315.040 99.889 C 315.075 99.543,315.060 99.531,314.971 99.833 C 314.863 100.198,314.042 100.222,301.777 100.222 L 288.698 100.222 288.590 99.722 C 288.496 99.282,288.487 99.288,288.519 99.778 M369.544 100.389 L 368.778 101.222 369.611 100.456 C 370.069 100.035,370.444 99.660,370.444 99.623 C 370.444 99.453,370.256 99.613,369.544 100.389 M186.949 103.333 C 186.949 103.883,186.993 104.108,187.046 103.833 C 187.099 103.558,187.099 103.108,187.046 102.833 C 186.993 102.558,186.949 102.783,186.949 103.333 M243.607 103.111 C 243.607 103.539,243.653 103.714,243.709 103.500 C 243.765 103.286,243.765 102.936,243.709 102.722 C 243.653 102.508,243.607 102.683,243.607 103.111 M135.634 105.444 C 135.634 106.544,135.671 107.022,135.718 106.507 C 135.765 105.991,135.765 105.091,135.719 104.507 C 135.673 103.922,135.635 104.344,135.634 105.444 M201.172 105.333 C 201.172 105.883,201.215 106.108,201.268 105.833 C 201.321 105.558,201.321 105.108,201.268 104.833 C 201.215 104.558,201.172 104.783,201.172 105.333 M328.949 105.556 C 328.949 106.106,328.993 106.331,329.046 106.056 C 329.099 105.781,329.099 105.331,329.046 105.056 C 328.993 104.781,328.949 105.006,328.949 105.556 M243.844 106.000 C 243.844 106.672,243.886 106.947,243.937 106.611 C 243.988 106.275,243.988 105.725,243.937 105.389 C 243.886 105.053,243.844 105.328,243.844 106.000 M229.385 106.889 C 229.385 107.317,229.431 107.492,229.487 107.278 C 229.542 107.064,229.542 106.714,229.487 106.500 C 229.431 106.286,229.385 106.461,229.385 106.889 M186.949 107.778 C 186.949 108.328,186.993 108.553,187.046 108.278 C 187.099 108.003,187.099 107.553,187.046 107.278 C 186.993 107.003,186.949 107.228,186.949 107.778 M178.727 110.444 C 178.727 110.994,178.771 111.219,178.823 110.944 C 178.876 110.669,178.876 110.219,178.823 109.944 C 178.771 109.669,178.727 109.894,178.727 110.444 M357.548 111.722 L 356.333 113.000 357.611 111.785 C 358.314 111.117,358.889 110.542,358.889 110.508 C 358.889 110.343,358.676 110.535,357.548 111.722 M178.727 114.444 C 178.727 114.994,178.771 115.219,178.823 114.944 C 178.876 114.669,178.876 114.219,178.823 113.944 C 178.771 113.669,178.727 113.894,178.727 114.444 M353.778 115.222 C 353.238 115.772,352.846 116.222,352.907 116.222 C 352.969 116.222,353.460 115.772,354.000 115.222 C 354.540 114.672,354.931 114.222,354.870 114.222 C 354.809 114.222,354.318 114.672,353.778 115.222 M161.111 115.444 C 160.571 115.994,160.180 116.444,160.241 116.444 C 160.302 116.444,160.794 115.994,161.333 115.444 C 161.873 114.894,162.265 114.444,162.204 114.444 C 162.143 114.444,161.651 114.894,161.111 115.444 M225.556 115.889 C 225.016 116.439,224.624 116.889,224.685 116.889 C 224.746 116.889,225.238 116.439,225.778 115.889 C 226.318 115.339,226.709 114.889,226.648 114.889 C 226.587 114.889,226.095 115.339,225.556 115.889 M178.727 118.889 C 178.727 119.439,178.771 119.664,178.823 119.389 C 178.876 119.114,178.876 118.664,178.823 118.389 C 178.771 118.114,178.727 118.339,178.727 118.889 M214.944 119.937 C 215.281 119.988,215.831 119.988,216.167 119.937 C 216.503 119.886,216.228 119.844,215.556 119.844 C 214.883 119.844,214.608 119.886,214.944 119.937 M301.280 120.824 C 301.557 120.877,301.957 120.875,302.169 120.819 C 302.382 120.764,302.156 120.720,301.667 120.723 C 301.178 120.725,301.004 120.771,301.280 120.824 M304.611 120.823 C 304.886 120.876,305.336 120.876,305.611 120.823 C 305.886 120.771,305.661 120.727,305.111 120.727 C 304.561 120.727,304.336 120.771,304.611 120.823 M194.000 123.889 C 194.664 124.561,195.257 125.111,195.318 125.111 C 195.379 125.111,194.886 124.561,194.222 123.889 C 193.558 123.217,192.965 122.667,192.904 122.667 C 192.843 122.667,193.336 123.217,194.000 123.889 M236.326 124.056 L 235.000 125.444 236.389 124.118 C 237.679 122.886,237.879 122.667,237.715 122.667 C 237.681 122.667,237.056 123.292,236.326 124.056 M281.111 124.111 C 281.775 124.783,282.368 125.333,282.429 125.333 C 282.490 125.333,281.997 124.783,281.333 124.111 C 280.669 123.439,280.076 122.889,280.015 122.889 C 279.954 122.889,280.447 123.439,281.111 124.111 M128.778 124.444 C 129.255 124.933,129.696 125.333,129.757 125.333 C 129.818 125.333,129.477 124.933,129.000 124.444 C 128.523 123.956,128.082 123.556,128.021 123.556 C 127.960 123.556,128.300 123.956,128.778 124.444 M324.655 124.389 L 323.889 125.222 324.722 124.456 C 325.498 123.744,325.658 123.556,325.488 123.556 C 325.451 123.556,325.076 123.931,324.655 124.389 M164.888 128.955 L 164.998 131.667 165.062 129.130 C 165.097 127.735,165.048 126.514,164.952 126.418 C 164.856 126.322,164.827 127.463,164.888 128.955 M178.727 131.778 C 178.727 132.328,178.771 132.553,178.823 132.278 C 178.876 132.003,178.876 131.553,178.823 131.278 C 178.771 131.003,178.727 131.228,178.727 131.778 M147.944 132.161 C 148.342 132.210,148.992 132.210,149.389 132.161 C 149.786 132.111,149.461 132.071,148.667 132.071 C 147.872 132.071,147.547 132.111,147.944 132.161 M298.278 132.153 C 298.492 132.209,298.842 132.209,299.056 132.153 C 299.269 132.097,299.094 132.052,298.667 132.052 C 298.239 132.052,298.064 132.097,298.278 132.153 M132.000 139.444 C 131.089 140.361,130.394 141.111,130.456 141.111 C 130.517 141.111,131.312 140.361,132.222 139.444 C 133.133 138.528,133.828 137.778,133.767 137.778 C 133.706 137.778,132.911 138.528,132.000 139.444 M265.829 142.222 C 265.829 142.650,265.875 142.825,265.931 142.611 C 265.987 142.397,265.987 142.047,265.931 141.833 C 265.875 141.619,265.829 141.794,265.829 142.222 M126.993 144.278 L 125.667 145.667 127.056 144.340 C 127.819 143.611,128.444 142.986,128.444 142.951 C 128.444 142.787,128.225 142.988,126.993 144.278 M241.178 143.055 C 242.376 143.095,244.276 143.095,245.400 143.054 C 246.525 143.014,245.544 142.981,243.222 142.982 C 240.900 142.982,239.980 143.015,241.178 143.055 M126.880 146.944 C 127.424 147.525,127.899 148.000,127.935 148.000 C 128.102 148.000,127.926 147.800,126.944 146.880 L 125.889 145.889 126.880 146.944 M171.661 148.278 L 170.111 149.889 171.722 148.339 C 173.219 146.900,173.435 146.667,173.272 146.667 C 173.238 146.667,172.513 147.392,171.661 148.278 M155.167 155.709 C 155.381 155.765,155.731 155.765,155.944 155.709 C 156.158 155.653,155.983 155.607,155.556 155.607 C 155.128 155.607,154.953 155.653,155.167 155.709 M148.278 155.931 C 148.492 155.987,148.842 155.987,149.056 155.931 C 149.269 155.875,149.094 155.829,148.667 155.829 C 148.239 155.829,148.064 155.875,148.278 155.931 " stroke="none" fill="#8cdc94" fill-rule="evenodd"></path></g></svg>