<svg id="svg" version="1.1" xmlns="http://www.w3.org/2000/svg" xmlns:xlink="http://www.w3.org/1999/xlink" width="400" height="154.07999999999998" viewBox="0, 0, 400,154.07999999999998"><g id="svgg"><path id="path0" d="M300.833 31.583 C 300.833 57.979,300.870 63.167,301.058 63.167 C 301.182 63.167,301.876 62.441,302.600 61.555 C 303.769 60.124,304.696 59.094,307.528 56.078 C 307.956 55.623,308.950 54.690,309.736 54.006 L 311.167 52.763 311.167 26.381 L 311.167 0.000 306.000 0.000 L 300.833 0.000 300.833 31.583 M318.167 24.347 C 318.167 40.178,318.224 48.675,318.330 48.639 C 318.420 48.608,318.851 48.304,319.288 47.962 C 321.950 45.882,324.670 43.986,326.375 43.023 L 328.332 41.917 328.333 20.958 L 328.333 0.000 323.250 0.000 L 318.167 0.000 318.167 24.347 M63.417 23.768 C 63.233 23.799,61.921 23.898,60.500 23.987 C 51.813 24.532,39.556 28.608,31.500 33.630 C 28.349 35.595,26.085 37.139,24.907 38.126 C 24.271 38.660,23.320 39.414,22.795 39.801 C 22.271 40.188,21.033 41.290,20.045 42.250 C 19.058 43.210,18.202 43.996,18.142 43.997 C 18.083 43.999,17.371 44.769,16.561 45.708 C 15.750 46.648,14.800 47.717,14.450 48.083 C 14.100 48.450,13.504 49.163,13.126 49.667 C 12.748 50.171,12.127 50.996,11.747 51.500 C 10.630 52.977,8.768 55.823,8.092 57.083 C 7.748 57.725,7.207 58.680,6.890 59.205 C 6.137 60.452,4.574 63.771,4.043 65.250 C 0.354 75.527,0.104 76.998,0.098 88.500 C 0.092 98.080,0.131 98.626,1.182 103.583 C 2.932 111.840,7.060 121.498,11.154 126.917 C 11.639 127.558,12.078 128.196,12.129 128.333 C 12.580 129.543,18.448 135.937,21.590 138.643 C 24.960 141.544,25.066 141.624,29.292 144.439 C 33.644 147.337,40.017 150.131,46.417 151.945 C 58.056 155.245,73.998 154.771,86.322 150.758 C 87.566 150.353,88.996 149.893,89.500 149.735 C 96.318 147.600,107.341 140.248,111.303 135.193 L 112.001 134.302 111.959 107.443 L 111.917 80.583 86.292 80.541 L 60.667 80.499 60.667 85.666 L 60.667 90.833 81.167 90.833 L 101.667 90.833 101.667 110.983 L 101.667 131.132 100.359 132.362 C 98.593 134.024,91.775 138.500,91.011 138.500 C 90.903 138.500,89.971 138.867,88.940 139.316 C 82.007 142.335,73.474 143.881,63.667 143.896 C 58.760 143.903,56.676 143.686,51.000 142.577 C 46.316 141.662,39.131 138.665,34.873 135.851 C 33.749 135.108,32.770 134.500,32.696 134.500 C 32.623 134.500,32.417 134.368,32.240 134.207 C 32.062 134.047,31.317 133.440,30.583 132.859 C 28.431 131.153,26.009 128.949,24.658 127.465 C 22.992 125.635,20.278 122.355,20.001 121.837 C 19.880 121.610,19.192 120.530,18.472 119.437 C 17.166 117.455,15.882 114.973,14.453 111.667 C 10.072 101.536,8.899 87.356,11.510 76.083 C 12.467 71.953,13.290 69.624,15.066 66.021 C 15.580 64.978,16.000 64.051,16.000 63.960 C 16.000 63.534,20.623 56.495,21.666 55.333 C 22.036 54.921,22.732 54.103,23.211 53.515 C 24.154 52.361,28.789 47.751,29.424 47.337 C 29.638 47.197,30.585 46.454,31.528 45.685 C 32.472 44.916,33.545 44.099,33.914 43.869 C 34.282 43.639,35.071 43.131,35.667 42.739 C 47.218 35.152,61.393 32.012,77.083 33.567 C 86.019 34.452,91.581 35.955,97.692 39.134 C 98.760 39.689,99.679 40.099,99.734 40.044 C 99.948 39.830,99.843 28.715,99.625 28.545 C 99.510 28.456,99.004 28.248,98.500 28.083 C 97.996 27.919,97.096 27.610,96.500 27.398 C 90.751 25.352,84.175 24.197,76.250 23.842 C 72.614 23.679,64.229 23.631,63.417 23.768 M63.167 40.275 C 56.301 40.930,48.645 43.190,43.065 46.212 C 39.152 48.331,38.242 48.898,36.333 50.408 C 35.737 50.879,34.925 51.482,34.527 51.748 C 32.977 52.786,27.996 57.982,25.701 60.954 C 19.068 69.549,15.921 82.600,17.411 95.338 C 18.173 101.858,20.723 109.532,23.636 114.072 C 23.875 114.445,24.206 115.013,24.371 115.333 C 24.696 115.966,25.855 117.557,27.859 120.119 C 29.151 121.770,33.022 125.689,33.925 126.259 C 34.195 126.430,34.963 127.007,35.631 127.541 C 36.930 128.580,38.932 129.953,39.750 130.365 C 40.025 130.504,40.813 130.941,41.500 131.337 C 43.735 132.625,46.619 133.897,48.436 134.398 C 48.884 134.522,50.178 134.893,51.312 135.224 C 61.602 138.224,78.562 136.881,87.993 132.320 C 90.393 131.159,92.695 129.742,93.812 128.738 L 94.667 127.969 94.667 112.901 L 94.667 97.833 77.667 97.833 L 60.667 97.833 60.667 102.917 L 60.667 108.000 72.833 108.000 L 85.000 108.000 85.000 115.331 L 85.000 122.662 84.410 122.909 C 75.739 126.532,62.990 127.627,54.583 125.471 C 41.759 122.183,31.754 112.048,28.524 99.076 C 27.556 95.184,27.231 86.430,27.884 81.787 C 28.964 74.104,34.766 64.501,41.250 59.665 C 43.622 57.896,44.410 57.345,45.727 56.541 C 54.666 51.077,64.389 49.434,78.500 51.002 C 86.279 51.867,92.314 53.999,97.341 57.659 C 98.480 58.488,99.507 59.167,99.623 59.167 C 99.789 59.167,99.833 57.896,99.833 53.197 L 99.833 47.227 97.042 45.879 C 91.400 43.156,85.062 41.443,77.405 40.572 C 75.169 40.317,64.956 40.105,63.167 40.275 M166.750 43.659 C 161.895 43.980,158.114 44.942,151.107 47.642 C 148.208 48.759,142.304 52.344,140.420 54.132 C 140.051 54.481,139.176 55.231,138.475 55.797 C 137.774 56.363,136.704 57.409,136.098 58.122 C 135.491 58.834,134.837 59.567,134.644 59.750 C 134.128 60.241,132.583 62.170,132.226 62.769 C 132.056 63.054,131.582 63.767,131.173 64.352 C 130.141 65.830,128.167 69.178,128.167 69.450 C 128.167 69.573,127.876 70.254,127.520 70.962 C 125.977 74.035,124.560 78.580,123.845 82.750 C 122.987 87.752,123.003 87.030,123.002 120.125 L 123.000 151.000 128.079 151.000 L 133.158 151.000 133.208 119.375 L 133.258 87.750 133.634 85.678 C 134.109 83.059,134.686 80.778,135.350 78.893 C 135.636 78.081,135.910 77.194,135.959 76.923 C 136.075 76.283,138.257 71.993,139.111 70.728 C 139.474 70.190,140.047 69.334,140.383 68.825 C 140.720 68.316,141.264 67.603,141.592 67.241 C 141.920 66.879,142.615 66.100,143.136 65.510 C 146.550 61.640,152.802 57.604,158.083 55.860 C 168.105 52.552,179.877 53.041,188.051 57.105 C 190.278 58.211,190.096 58.225,191.170 56.875 C 192.021 55.804,193.348 54.353,195.865 51.737 C 197.240 50.307,197.238 50.425,195.914 49.477 C 192.744 47.207,186.509 44.967,180.667 44.001 C 178.307 43.611,170.420 43.417,166.750 43.659 M346.000 43.677 C 341.516 44.000,335.481 45.767,330.000 48.359 C 328.513 49.063,322.628 52.899,320.917 54.280 C 320.367 54.724,319.429 55.434,318.833 55.857 C 318.237 56.279,317.225 57.108,316.583 57.697 C 315.942 58.287,314.892 59.185,314.250 59.694 C 312.779 60.861,306.054 67.570,304.441 69.480 C 303.774 70.270,302.802 71.362,302.282 71.907 C 301.762 72.452,301.054 73.265,300.710 73.715 C 300.365 74.164,299.668 74.993,299.161 75.557 C 298.071 76.770,293.231 82.776,291.625 84.907 L 290.500 86.401 290.500 93.950 C 290.500 98.602,290.561 101.500,290.658 101.500 C 290.818 101.500,291.185 101.055,292.195 99.636 C 293.185 98.244,299.264 90.738,301.583 88.042 C 302.408 87.084,303.461 85.828,303.923 85.251 C 304.384 84.675,305.391 83.539,306.160 82.727 C 306.929 81.915,307.773 80.953,308.036 80.590 C 309.856 78.078,322.545 65.601,325.810 63.113 C 326.510 62.579,327.311 61.935,327.590 61.682 C 330.205 59.309,337.164 55.994,341.750 54.938 C 349.340 53.190,354.006 53.322,362.417 55.524 C 364.956 56.189,370.831 59.282,373.765 61.500 C 382.128 67.822,387.470 76.534,389.247 86.750 C 390.302 92.814,389.997 105.248,388.656 110.833 C 388.381 111.979,388.116 113.104,388.066 113.333 C 387.844 114.361,385.521 119.602,385.001 120.250 C 384.927 120.342,384.624 120.897,384.326 121.484 C 384.029 122.072,383.687 122.672,383.566 122.818 C 383.446 122.964,382.838 123.771,382.215 124.612 C 380.747 126.595,378.328 129.323,377.167 130.306 C 376.662 130.732,376.100 131.220,375.917 131.390 C 375.474 131.800,371.891 134.500,371.789 134.500 C 371.746 134.500,370.856 134.996,369.813 135.602 C 367.981 136.667,365.372 137.919,364.167 138.311 C 355.131 141.252,347.476 141.445,339.500 138.933 C 338.813 138.717,337.937 138.454,337.554 138.350 C 336.720 138.123,332.505 136.004,330.428 134.767 C 328.607 133.682,324.663 130.477,323.334 129.002 C 322.796 128.405,321.972 127.504,321.503 127.000 C 318.764 124.057,315.219 117.359,314.157 113.118 C 313.909 112.129,313.815 112.160,312.672 113.614 C 312.165 114.260,310.606 116.153,309.208 117.822 C 307.810 119.491,306.667 120.958,306.667 121.084 C 306.667 122.116,309.229 127.784,310.654 129.905 C 311.152 130.645,311.879 131.732,312.270 132.321 C 312.662 132.910,313.643 134.104,314.450 134.973 C 315.256 135.842,316.016 136.694,316.138 136.866 C 316.458 137.316,321.126 141.303,321.917 141.801 C 322.283 142.031,323.296 142.688,324.167 143.259 C 333.770 149.557,346.235 152.081,358.667 150.245 C 361.658 149.803,362.351 149.653,364.533 148.984 C 383.157 143.265,396.938 127.345,399.739 108.312 C 400.172 105.370,400.115 88.522,399.663 85.583 C 398.693 79.289,395.995 71.899,393.069 67.519 C 392.603 66.821,392.094 65.980,391.937 65.650 C 390.472 62.563,381.996 54.117,377.869 51.631 C 377.253 51.261,376.262 50.640,375.667 50.251 C 367.973 45.233,357.275 42.863,346.000 43.677 M227.692 44.017 C 224.169 44.552,219.156 46.001,216.301 47.308 C 215.870 47.505,215.448 47.667,215.363 47.667 C 214.293 47.667,205.733 52.902,204.199 54.493 C 204.044 54.655,203.542 55.066,203.083 55.408 C 201.640 56.483,196.167 62.205,196.167 62.639 C 196.167 62.712,195.901 63.068,195.576 63.428 C 191.978 67.423,188.100 75.943,186.593 83.167 C 185.203 89.826,185.235 105.196,186.652 111.667 C 188.198 118.721,191.405 125.898,195.069 130.500 C 195.543 131.096,196.153 131.916,196.424 132.323 C 196.852 132.966,198.797 135.101,200.673 136.990 C 202.291 138.618,205.698 141.370,207.596 142.583 C 208.026 142.858,208.986 143.473,209.730 143.950 C 220.809 151.056,238.071 153.085,248.750 148.537 L 250.250 147.899 250.294 142.783 C 250.321 139.702,250.276 137.667,250.183 137.667 C 250.098 137.667,249.703 137.806,249.305 137.976 C 244.039 140.231,235.846 141.255,229.917 140.399 C 227.415 140.038,225.287 139.508,221.500 138.305 C 220.442 137.969,217.242 136.382,215.708 135.433 C 214.878 134.920,214.152 134.500,214.093 134.500 C 213.722 134.500,209.464 131.131,208.195 129.833 C 202.472 123.981,199.395 118.866,197.268 111.667 C 196.119 107.778,196.083 107.341,196.083 97.083 L 196.083 87.750 196.544 85.654 C 197.058 83.313,198.176 79.854,198.991 78.083 C 199.286 77.442,199.667 76.569,199.838 76.143 C 200.271 75.062,202.015 72.163,203.095 70.727 C 203.593 70.066,204.000 69.469,204.000 69.400 C 204.000 68.592,210.700 62.338,213.833 60.222 C 221.911 54.767,232.850 52.616,242.500 54.585 C 246.279 55.356,246.938 55.531,248.798 56.258 C 256.825 59.397,264.978 66.131,268.310 72.374 C 271.602 78.540,272.045 79.702,273.165 85.083 C 273.993 89.061,273.999 89.308,273.999 121.125 L 274.000 151.000 279.090 151.000 L 284.179 151.000 284.125 118.958 C 284.074 89.463,284.047 86.793,283.782 85.361 C 282.925 80.727,282.068 77.980,279.696 72.250 C 279.268 71.218,277.700 68.358,276.968 67.275 C 276.605 66.739,276.115 65.952,275.879 65.525 C 275.643 65.099,274.730 63.859,273.850 62.769 C 272.970 61.679,272.059 60.542,271.825 60.242 C 270.411 58.428,264.457 53.199,262.374 51.945 C 261.892 51.654,260.880 51.018,260.124 50.532 C 251.596 45.038,238.406 42.388,227.692 44.017 M169.361 60.675 C 164.191 61.166,159.207 62.719,155.358 65.037 C 147.202 69.951,141.864 78.025,140.423 87.624 C 140.199 89.113,140.167 93.267,140.167 120.082 L 140.167 150.833 145.333 150.833 L 150.500 150.833 150.501 120.458 C 150.501 86.756,150.428 89.064,151.623 85.083 C 153.468 78.938,158.677 73.864,165.200 71.859 C 169.449 70.553,176.151 70.656,179.917 72.085 C 181.919 72.844,181.696 72.941,182.668 70.892 C 183.140 69.897,183.646 68.783,183.791 68.417 C 183.937 68.050,184.531 66.917,185.112 65.899 C 186.400 63.639,186.405 63.811,185.042 63.165 C 181.042 61.268,174.332 60.203,169.361 60.675 M233.083 60.610 C 229.531 60.898,226.512 61.575,223.618 62.732 C 222.563 63.155,221.647 63.500,221.583 63.500 C 221.328 63.500,218.176 65.361,217.019 66.196 C 216.342 66.684,215.667 67.158,215.519 67.250 C 213.785 68.324,209.238 73.111,208.275 74.876 C 208.163 75.082,207.796 75.673,207.459 76.190 C 203.817 81.780,202.835 86.199,202.835 97.000 C 202.835 107.893,203.832 112.407,207.474 118.000 C 207.803 118.504,208.173 119.104,208.297 119.333 C 209.120 120.851,213.167 125.276,214.599 126.223 C 214.898 126.421,215.692 127.007,216.363 127.524 C 217.568 128.453,220.279 130.072,221.250 130.443 C 221.525 130.547,222.599 130.981,223.636 131.405 C 231.835 134.761,242.942 133.995,249.292 129.637 L 250.000 129.151 250.000 123.807 C 250.000 119.345,249.962 118.479,249.771 118.552 C 249.645 118.601,249.037 118.986,248.420 119.408 C 240.968 124.510,229.914 124.647,222.691 119.728 C 221.834 119.144,221.081 118.667,221.019 118.667 C 220.957 118.667,220.488 118.235,219.978 117.708 C 214.246 111.792,213.002 108.114,213.002 97.083 C 213.001 88.186,213.730 84.933,216.734 80.417 C 217.786 78.835,221.568 75.000,222.075 75.000 C 222.135 75.000,222.612 74.710,223.134 74.356 C 229.835 69.813,239.759 69.885,246.613 74.528 C 246.997 74.788,247.393 75.000,247.494 75.000 C 247.753 75.000,251.951 79.123,252.229 79.650 C 252.355 79.888,252.919 80.844,253.483 81.774 C 256.598 86.906,256.500 85.596,256.500 122.200 L 256.500 151.000 261.757 151.000 L 267.013 151.000 266.955 120.458 C 266.889 85.703,266.979 87.760,265.305 82.667 C 263.285 76.520,258.725 69.846,254.852 67.366 C 254.613 67.212,253.692 66.582,252.806 65.966 C 251.920 65.349,250.532 64.531,249.722 64.148 C 248.913 63.764,248.058 63.353,247.822 63.234 C 245.606 62.111,240.512 60.910,236.929 60.665 C 234.613 60.507,234.395 60.504,233.083 60.610 M349.000 60.768 C 345.930 61.141,343.513 61.727,341.167 62.666 C 340.662 62.867,339.708 63.242,339.046 63.498 C 335.409 64.903,329.199 69.390,325.350 73.394 C 324.745 74.022,323.125 75.672,321.749 77.060 C 318.128 80.713,317.071 81.855,311.167 88.493 C 306.513 93.725,304.672 95.825,303.688 97.027 C 303.288 97.516,302.486 98.442,301.908 99.083 C 301.329 99.725,300.457 100.754,299.970 101.370 C 299.482 101.986,298.427 103.273,297.625 104.229 C 296.823 105.185,296.167 106.020,296.167 106.084 C 296.167 106.149,295.825 106.581,295.408 107.044 C 294.991 107.508,293.754 109.071,292.658 110.518 L 290.667 113.148 290.667 121.074 C 290.667 126.067,290.726 129.000,290.828 129.000 C 290.916 129.000,291.348 128.485,291.786 127.856 C 292.225 127.226,293.183 125.964,293.917 125.052 C 294.650 124.139,296.300 122.055,297.583 120.420 C 300.131 117.175,302.002 114.862,302.605 114.211 C 302.817 113.982,303.237 113.461,303.537 113.054 C 303.838 112.646,304.443 111.886,304.882 111.365 C 305.321 110.843,306.242 109.742,306.928 108.917 C 307.614 108.092,308.373 107.192,308.615 106.917 C 310.719 104.520,314.580 100.010,316.807 97.347 C 317.388 96.652,318.296 95.596,318.825 95.000 C 319.354 94.404,320.365 93.250,321.071 92.434 C 321.778 91.619,322.496 90.832,322.668 90.684 C 322.840 90.537,323.436 89.865,323.992 89.190 C 325.342 87.556,327.831 84.906,331.106 81.617 C 335.924 76.779,336.843 75.978,339.630 74.198 C 346.598 69.748,355.946 69.881,362.780 74.526 C 363.163 74.787,363.551 75.000,363.642 75.000 C 364.055 75.000,367.988 79.145,368.798 80.434 C 371.969 85.477,372.502 87.924,372.496 97.417 C 372.493 103.436,372.256 106.047,371.504 108.333 C 367.115 121.690,351.225 127.532,340.428 119.758 C 333.789 114.978,328.463 105.285,327.902 96.958 C 327.775 95.081,327.757 95.086,325.750 97.604 C 324.833 98.754,323.392 100.532,322.546 101.556 C 321.701 102.579,320.656 103.896,320.224 104.481 L 319.438 105.545 319.820 107.148 C 320.850 111.472,323.078 116.402,325.596 119.928 C 327.226 122.211,329.927 125.176,331.250 126.135 C 331.708 126.467,332.144 126.835,332.217 126.954 C 332.291 127.072,333.304 127.799,334.468 128.569 C 343.999 134.870,354.588 135.336,365.833 129.948 C 368.754 128.549,374.407 123.794,376.140 121.278 C 378.346 118.075,378.985 117.067,379.443 116.067 C 381.308 111.993,382.173 109.111,382.671 105.309 C 383.070 102.266,382.792 89.087,382.279 86.731 C 381.308 82.265,379.467 77.968,377.208 74.889 C 376.681 74.171,376.038 73.270,375.778 72.888 C 375.157 71.972,371.288 68.211,370.240 67.504 C 369.787 67.198,368.929 66.592,368.333 66.157 C 363.496 62.627,354.447 60.105,349.000 60.768 " stroke="none" fill="#04b45c" fill-rule="evenodd"></path><path id="path1" d="" stroke="none" fill="#08b45c" fill-rule="evenodd"></path><path id="path2" d="" stroke="none" fill="#08b45c" fill-rule="evenodd"></path><path id="path3" d="" stroke="none" fill="#08b45c" fill-rule="evenodd"></path><path id="path4" d="" stroke="none" fill="#08b45c" fill-rule="evenodd"></path></g></svg>